<?xml version="1.0" standalone="no"?>
<!DOCTYPE svg PUBLIC "-//W3C//DTD SVG 1.1//EN" "http://www.w3.org/Graphics/SVG/1.1/DTD/svg11.dtd" >
<svg xmlns="http://www.w3.org/2000/svg" xmlns:xlink="http://www.w3.org/1999/xlink" version="1.1">
<metadata></metadata>
<defs>
<font id="sharp_sansbold" horiz-adv-x="1251" >
<font-face units-per-em="2048" ascent="1638" descent="-410" />
<missing-glyph horiz-adv-x="479" />
<glyph horiz-adv-x="0" />
<glyph unicode="&#xd;" horiz-adv-x="479" />
<glyph horiz-adv-x="0" />
<glyph horiz-adv-x="0" />
<glyph unicode=" "  horiz-adv-x="479" />
<glyph unicode="&#x09;" horiz-adv-x="479" />
<glyph unicode="&#xa0;" horiz-adv-x="479" />
<glyph unicode="!" horiz-adv-x="536" d="M90 152q0 77 50 129q50 51 128 51q80 0 130 -51q51 -53 51 -129t-51 -129q-50 -52 -130 -52q-79 0 -129 52q-49 50 -49 129zM125 1251v244h289v-244q0 -200 -17 -409q-17 -204 -45 -383h-164q-27 172 -46 383q-17 191 -17 409z" />
<glyph unicode="&#x22;" horiz-adv-x="737" d="M113 1303v192h219v-192q0 -31 -8 -81q-5 -33 -21 -90q-14 -51 -24 -82q-4 -11 -7.5 -22t-7 -21.5l-4.5 -13.5h-78q-3 8 -19 57q-5 16 -23 83q-11 40 -19 90q-8 48 -8 80zM408 1303v192h219v-192q0 -31 -8 -81q-5 -33 -21 -90q-8 -28 -25 -82q-4 -12 -10 -31.5t-8 -25.5 h-78q-3 8 -19 57q-5 16 -23 83q-11 40 -19 90q-8 48 -8 80z" />
<glyph unicode="#" horiz-adv-x="1710" d="M94 317v277h309v324h-309v276h309v301h287v-301h324v301h289v-301h315v-276h-315v-324h315v-277h-315v-317h-289v317h-324v-317h-287v317h-309zM690 594h324v324h-324v-324z" />
<glyph unicode="$" horiz-adv-x="1241" d="M55 252l254 199q58 -97 146 -148q89 -51 184 -51q105 0 167 56t62 134q0 48 -26 80q-27 33 -71 56q-37 19 -100 39q-51 16 -116 34q-75 22 -152 51q-75 29 -141 79q-63 48 -104 121t-41 181q0 81 26 147q27 69 76 124q49 56 117 93q69 38 151 56v217h281v-217 q122 -22 210 -80q85 -56 152 -135l-233 -178q-46 73 -118 114q-70 40 -158 40q-96 0 -155 -47q-58 -46 -58 -119q0 -45 24 -75t68 -51q46 -22 99 -39q57 -18 120 -36q61 -19 154 -56q78 -31 144 -83q65 -51 105 -126q41 -76 41 -183q0 -80 -25 -152q-26 -73 -75 -135 q-50 -62 -122 -107t-167 -63v-238h-282v238q-148 24 -253 96q-106 73 -184 164z" />
<glyph unicode="%" horiz-adv-x="1794" d="M78 0l1284 1495h360l-1284 -1495h-360zM98 1149q0 74 29 143q28 66 79 117q48 48 117 78q67 29 142 29t142 -29q69 -30 117 -78q51 -51 79 -117t28 -143t-28 -142t-79 -116q-48 -48 -117 -78q-67 -29 -142 -29t-142 29q-69 30 -117 78q-51 51 -79 116q-29 67 -29 142z M336 1149q0 -53 38 -91t91 -38t91 38t38 91q0 55 -38 93t-91 38t-91 -38t-38 -93zM969 346q0 77 28 142q29 67 79 117t117 79t142 29q76 0 143 -29q65 -28 116 -79q50 -50 79 -117t29 -142q0 -77 -29 -144t-79 -117q-51 -51 -116 -79q-67 -29 -143 -29q-75 0 -142 29 t-117 79t-79 117q-28 65 -28 144zM1208 346q0 -56 37 -93q38 -38 90 -38q53 0 91 38t38 93q0 53 -38 91t-91 38q-52 0 -90 -38q-37 -37 -37 -91z" />
<glyph unicode="&#x26;" horiz-adv-x="1638" d="M88 387q0 77 27 140q28 64 71 115q42 49 104 95q51 38 120 80q-73 85 -108 161q-34 74 -34 171q0 73 29 140q30 69 81 117q54 51 127 80q75 30 167 30q88 0 163 -28q70 -26 124 -77q53 -50 80 -114q28 -67 28 -138q0 -63 -21 -115q-20 -51 -58 -98q-35 -43 -84 -85 q-46 -39 -101 -75l203 -202l256 315h337l-401 -489l424 -410h-389l-209 207q-69 -70 -118 -108q-57 -43 -113 -70q-53 -25 -116 -38q-54 -11 -124 -11q-109 0 -193 28q-85 28 -146 83q-60 54 -93 129t-33 167zM377 410q0 -85 56 -129q57 -45 134 -45q67 0 131 32 q66 33 142 115l-265 264q-85 -53 -142 -109q-56 -56 -56 -128zM535 1157q0 -57 22 -100q23 -45 82 -105q70 44 118 95q46 49 46 110q0 55 -36 91t-95 36q-62 0 -100 -36q-37 -36 -37 -91z" />
<glyph unicode="'" horiz-adv-x="444" d="M113 1303v192h219v-192q0 -31 -8 -81q-5 -33 -21 -90q-14 -51 -24 -82q-4 -11 -7.5 -22t-7 -21.5l-4.5 -13.5h-78q-3 8 -19 57q-5 16 -23 83q-11 40 -19 90q-8 48 -8 80z" />
<glyph unicode="(" horiz-adv-x="907" d="M90 512q0 178 41 333q39 149 116 279q76 130 178 233q105 106 226 195l183 -221q-99 -69 -176 -146q-79 -79 -140 -181q-57 -95 -93 -223q-34 -120 -34 -267q0 -142 33 -264q33 -121 91 -221q59 -101 141 -183q77 -77 184 -149l-176 -236q-126 87 -231 193 q-104 105 -181 237q-74 126 -119 285q-43 151 -43 336z" />
<glyph unicode=")" horiz-adv-x="907" d="M68 -305q99 66 184 150q81 80 142 184q58 99 91 220q33 120 33 261q0 146 -35 269t-94 222q-62 104 -140 182q-79 79 -175 146l184 223q125 -91 225 -196q102 -106 177 -234q77 -130 116 -279q41 -155 41 -333q0 -185 -43 -336q-45 -159 -119 -285q-77 -132 -181 -237 q-107 -109 -230 -193z" />
<glyph unicode="*" horiz-adv-x="903" d="M78 1061l244 74l-244 77l125 209l184 -174l-57 250h243l-59 -254l193 178l120 -213l-252 -75l252 -76l-125 -209l-186 174l57 -250h-243l57 250l-190 -174z" />
<glyph unicode="+" horiz-adv-x="978" d="M111 627v241h262v256h235v-256h260v-241h-260v-260h-235v260h-262z" />
<glyph unicode="," horiz-adv-x="559" d="M84 147q0 83 52 134t136 51q99 0 152 -67t53 -163q0 -124 -69 -223q-65 -94 -185 -182l-90 94q94 71 139 132q48 65 54 132q-27 -61 -99 -61q-62 0 -103 44q-40 43 -40 109z" />
<glyph unicode="-" horiz-adv-x="972" d="M109 397v244h757v-244h-757z" />
<glyph unicode="." horiz-adv-x="522" d="M84 152q0 77 50 129q50 51 128 51t128 -51q50 -52 50 -129t-50 -129t-128 -52q-79 0 -129 52q-49 50 -49 129z" />
<glyph unicode="/" horiz-adv-x="1126" d="M59 0l709 1495h301l-709 -1495h-301z" />
<glyph unicode="0" horiz-adv-x="1378" d="M104 721v70q0 191 46 331q46 141 123 226q78 87 186 128q105 40 229 40t233 -41q107 -40 185 -129q77 -88 123 -226q45 -136 45 -329v-70q0 -209 -43 -348q-44 -143 -121 -229q-78 -88 -185 -126q-105 -38 -237 -38t-236 39q-110 41 -185 128q-76 88 -120 230 q-43 139 -43 344zM393 725q0 -139 21 -229q22 -93 58 -144q38 -53 93 -74q58 -22 123 -22q68 0 123 21t93 76t59 145q20 86 20 227v61q0 136 -21 224q-20 85 -60 139q-37 51 -92 72q-51 20 -120 20q-68 0 -122 -21q-53 -21 -93 -74q-39 -53 -60 -140q-22 -93 -22 -220v-61z " />
<glyph unicode="1" horiz-adv-x="854" d="M78 897v285h10q177 0 259 82q84 84 85 231h281v-1495h-291v1067q-41 -80 -122 -125t-187 -45h-35z" />
<glyph unicode="2" horiz-adv-x="1218" d="M74 1180q76 153 214 244q139 92 330 92q120 0 211 -33q94 -34 157 -91t98 -138q34 -78 34 -169q0 -88 -35 -161q-35 -72 -90 -129q-60 -61 -126 -105q-76 -50 -142 -90q-89 -54 -119 -74q-65 -43 -101 -75q-47 -42 -73 -82q-30 -45 -31 -95h711v-274h-1012v242 q0 99 38 181q37 79 98 145q63 67 135 117q78 54 149 97q89 57 118 74q54 33 98 72q45 40 67 76q24 39 24 83q0 79 -54 128q-56 51 -159 51q-104 0 -176 -60q-70 -58 -108 -151z" />
<glyph unicode="3" horiz-adv-x="1206" d="M16 236l242 178q56 -92 133 -132t182 -40q111 0 182 54q70 54 70 148q0 92 -71 141q-73 50 -189 50h-166v260h154q120 0 179 55q61 56 61 140q0 74 -56 127t-172 53q-103 0 -170 -43q-66 -43 -110 -121l-240 143q84 126 213 196q131 71 305 71q121 0 216 -30 q98 -31 162 -85q66 -55 102 -132t36 -171q0 -104 -47 -186t-129 -134q99 -51 156 -135t57 -205q0 -99 -37 -182q-38 -85 -107 -145q-72 -63 -171 -97t-228 -34q-199 0 -329 63q-132 64 -228 193z" />
<glyph unicode="4" horiz-adv-x="1310" d="M80 330v254l647 911h287v-911h219v-254h-219v-330h-277v330h-657zM387 584h350v493z" />
<glyph unicode="5" horiz-adv-x="1214" d="M72 258l280 158q30 -72 93 -120t159 -48q48 0 92 18q43 18 75 50t50 76q19 46 19 97q0 110 -67 179q-66 67 -175 67q-88 0 -147 -43q-61 -44 -95 -106l-268 108l121 801h825v-268h-602l-51 -316q47 38 112 62t146 24q108 0 196 -33q90 -34 156 -100q67 -67 104 -161 q38 -96 38 -220q0 -111 -39 -202q-39 -92 -109 -160q-69 -67 -167 -105q-94 -36 -214 -36q-191 0 -322 76t-210 202z" />
<glyph unicode="6" horiz-adv-x="1300" d="M104 709q0 196 53 347q53 152 147 253q93 100 231 154q136 53 301 53q85 0 164 -14q82 -15 131 -34l-111 -264q-36 17 -90 29q-56 12 -119 12q-182 0 -293 -101q-112 -102 -139 -308q52 84 140 129q87 45 206 45q106 0 195 -37q88 -37 154 -104q64 -66 102 -159 q36 -89 36 -206q0 -112 -41 -209q-41 -98 -114 -166q-74 -70 -173 -110q-95 -39 -216 -39q-261 0 -416 188q-40 50 -63 94q-29 54 -46 116t-28 145q-11 85 -11 186zM408 502q0 -59 20 -103q21 -47 55 -81q32 -32 82 -53q45 -19 101 -19t103 19q50 20 84 53q36 34 55 82 q20 49 20 104q0 111 -73 184q-72 72 -189 72q-53 0 -101 -20q-50 -21 -82 -53q-34 -34 -55 -81q-20 -44 -20 -104z" />
<glyph unicode="7" horiz-adv-x="1159" d="M86 1225v270h983v-252l-543 -1243h-309l551 1225h-682z" />
<glyph unicode="8" horiz-adv-x="1267" d="M86 449q0 111 51 199t142 149q-62 53 -100 126t-38 164q0 99 36 178q35 78 102 134q67 57 157 86q95 31 203 31q105 0 200 -31q88 -29 156 -86q67 -56 102 -134q36 -79 36 -178q0 -91 -36 -165t-100 -127q87 -61 136 -147t49 -199q0 -111 -37 -195q-38 -87 -108 -148 t-172 -94q-99 -32 -230 -32q-134 0 -233 32q-102 33 -172 94q-68 59 -107 148q-37 84 -37 195zM365 449q0 -90 67 -153q68 -63 203 -63t204 63q68 62 68 153q0 89 -67 152q-68 63 -201 63q-136 0 -205 -63t-69 -152zM406 1085q0 -81 54 -133q55 -53 177 -53q120 0 176 52 q57 53 57 134q0 79 -56 134t-173 55t-176 -55t-59 -134z" />
<glyph unicode="9" horiz-adv-x="1273" d="M88 1004q0 111 40 204q41 95 112 162q73 69 169 107q97 39 212 39q132 0 236 -52q99 -49 177 -143q33 -40 59 -91q25 -49 42 -115q16 -61 25 -144q9 -80 9 -183q0 -191 -42 -341q-41 -147 -125 -254q-82 -105 -209 -160q-129 -56 -295 -56q-116 0 -220 26q-99 25 -180 73 l148 260q52 -36 115 -59t137 -23q186 0 282 100q97 102 115 318q-101 -170 -332 -170q-96 0 -183 36q-88 36 -152 102q-63 65 -102 159q-38 93 -38 205zM373 1004q0 -55 19 -99q20 -47 53 -78q35 -34 80 -51q47 -18 100 -18q51 0 97 18t80 52q33 33 53 78q19 42 19 98 q0 53 -20 97q-22 48 -54 79q-34 33 -80 52q-45 19 -97 19q-55 0 -99 -19q-45 -20 -79 -52q-33 -32 -53 -79q-19 -45 -19 -97z" />
<glyph unicode=":" horiz-adv-x="522" d="M84 152q0 77 50 129q50 51 128 51t128 -51q50 -52 50 -129t-50 -129t-128 -52q-79 0 -129 52q-49 50 -49 129zM84 856q0 77 50 129q49 51 128 51q78 0 128 -51q50 -52 50 -129q0 -78 -50 -128t-128 -50q-79 0 -129 50q-49 49 -49 128z" />
<glyph unicode=";" horiz-adv-x="559" d="M84 147q0 83 52 134t136 51q99 0 152 -67t53 -163q0 -124 -69 -223q-65 -94 -185 -182l-90 94q94 71 139 132q48 65 54 132q-27 -61 -99 -61q-62 0 -103 44q-40 43 -40 109zM88 856q0 77 50 129q50 51 128 51t128 -51q50 -52 50 -129q0 -78 -50 -128t-128 -50 q-79 0 -129 50q-49 49 -49 128z" />
<glyph unicode="&#x3c;" horiz-adv-x="978" d="M111 625v241l757 271v-246l-454 -146l454 -147v-246z" />
<glyph unicode="=" horiz-adv-x="972" d="M109 453v237h757v-237h-757zM109 801v235h757v-235h-757z" />
<glyph unicode="&#x3e;" horiz-adv-x="978" d="M111 352v246l452 147l-452 146v246l757 -271v-241z" />
<glyph unicode="?" horiz-adv-x="1150" d="M90 1212q53 136 173 220t312 84q102 0 192 -31q85 -29 149 -87t98 -133q35 -78 35 -169q0 -95 -29 -158q-28 -61 -72 -103q-46 -45 -93 -73q-44 -26 -93 -69q-42 -37 -72 -88q-28 -49 -28 -132v-14h-246v14q0 118 25 192q25 75 65 125q38 49 83 81q41 30 83 62 q40 31 64 66q26 38 26 95q0 76 -54 125q-53 49 -145 49q-85 0 -140 -47t-79 -117zM358 152q0 76 51 129q49 51 130 51q79 0 129 -51q49 -50 49 -129q0 -77 -50 -129t-128 -52q-80 0 -130 52q-51 53 -51 129z" />
<glyph unicode="@" horiz-adv-x="1726" d="M90 506q0 158 62 300q62 143 167 246q108 106 250 167q143 61 308 61q179 0 319 -58q141 -58 239 -155q96 -94 149 -219q52 -122 52 -252q0 -90 -24 -170q-23 -78 -71 -139q-46 -59 -113 -94t-152 -35q-91 0 -151 30q-59 30 -95 78q-38 -51 -99 -78q-62 -28 -149 -28 q-66 0 -126 24q-58 23 -105 73t-70 117q-24 70 -14 156q11 97 47 162q39 69 88 113q51 45 111 66q63 22 114 22q62 0 113 -20q49 -19 82 -54q5 36 6 47q2 10 2 15h225l-41 -369q-12 -131 80 -131q49 0 83 58t34 155q0 88 -36 173q-37 87 -103 152q-68 67 -167 107 q-100 41 -228 41q-118 0 -221 -44q-99 -42 -176 -121q-73 -74 -116 -179q-42 -102 -42 -217t42 -214q43 -101 114 -172q74 -74 171 -115q99 -42 213 -42q118 0 214 44q95 44 167 122q3 -3 35 -30q54 -45 59 -50l82 -69q-101 -107 -242 -171q-144 -65 -313 -65 q-167 0 -308 58q-142 58 -246 162t-162 243q-58 138 -58 299zM694 532q-10 -70 32 -117q42 -46 108 -46q67 0 112 47q45 46 51 116q8 69 -28 113q-38 47 -105 47q-65 0 -115 -44q-51 -44 -55 -116z" />
<glyph unicode="A" horiz-adv-x="1476" d="M31 0l565 1495h285l565 -1495h-297l-98 272h-625l-98 -272h-297zM522 535h432l-215 593z" />
<glyph unicode="B" horiz-adv-x="1384" d="M131 0v1495h619q252 0 384 -107q134 -108 134 -311q0 -103 -44 -180q-43 -76 -128 -123q94 -46 144 -131t50 -201q0 -112 -37 -193q-38 -83 -106 -138q-69 -56 -169 -83q-103 -28 -224 -28h-623zM416 260h342q118 0 179 50q60 50 60 139q0 88 -57 136t-195 48h-329v-373z M416 893h344q116 0 168 50q51 49 51 128q0 78 -54 123t-169 45h-340v-346z" />
<glyph unicode="C" horiz-adv-x="1605" d="M94 748q0 162 59 304q58 140 161 243q104 103 243 162q141 59 303 59q107 0 206 -27q100 -27 184 -76q88 -51 155 -118q72 -72 119 -152l-254 -160q-60 117 -163 183q-105 67 -245 67q-101 0 -189 -38q-90 -39 -151 -103q-63 -66 -99 -155t-36 -189q0 -97 35 -187 q33 -85 98 -153q63 -66 150 -104t188 -38q152 0 261 77q107 76 163 200l264 -142q-45 -92 -116 -172q-67 -75 -157 -133q-88 -56 -192 -86q-105 -30 -221 -30q-169 0 -310 60q-139 59 -242 165q-99 102 -157 244q-57 139 -57 299z" />
<glyph unicode="D" horiz-adv-x="1488" d="M131 0v1495h483q179 0 323 -57q143 -57 246 -158q99 -98 156 -237q56 -138 56 -295q0 -159 -59 -297q-60 -141 -161 -237q-105 -100 -245 -157q-141 -57 -309 -57h-490zM422 270h180q114 0 206 37q94 38 158 102t100 151t36 188q0 103 -34 190q-35 90 -98 153 q-64 64 -159 100q-94 36 -217 36h-172v-957z" />
<glyph unicode="E" d="M131 0v1495h1006v-272h-717v-336h717v-273h-717v-340h717v-274h-1006z" />
<glyph unicode="F" horiz-adv-x="1204" d="M131 0v1495h963v-274h-672v-347h672v-270h-672v-604h-291z" />
<glyph unicode="G" horiz-adv-x="1699" d="M94 748q0 159 58 302q56 138 159 243q100 102 244 163q141 60 311 60q214 0 373 -84q160 -84 266 -228l-243 -170q-66 99 -165 153t-231 54q-103 0 -192 -39q-88 -39 -153 -105q-62 -63 -101 -157q-37 -89 -37 -192q0 -106 36 -194q37 -92 100 -156q63 -65 155 -103 q89 -37 196 -37q174 0 281 88t145 236h-475v270h787v-125q0 -147 -52 -285q-50 -133 -146 -238q-95 -104 -231 -164q-137 -60 -305 -60q-176 0 -319 61t-246 167q-100 103 -158 245q-57 139 -57 295z" />
<glyph unicode="H" horiz-adv-x="1445" d="M131 0v1495h291v-602h604v602h289v-1495h-289v610h-604v-610h-291z" />
<glyph unicode="I" horiz-adv-x="575" d="M141 0v1495h293v-1495h-293z" />
<glyph unicode="J" horiz-adv-x="1073" d="M45 285l277 112q21 -67 63 -107q43 -42 113 -42q77 0 116 51t39 133v1063h291v-1044q0 -223 -111 -347t-331 -124q-176 0 -293 83q-119 84 -164 222z" />
<glyph unicode="K" horiz-adv-x="1372" d="M131 0v1495h291v-694l561 694h344l-457 -557l473 -938h-319l-365 739l-237 -290v-449h-291z" />
<glyph unicode="L" horiz-adv-x="1200" d="M131 0v1495h291v-1214h690v-281h-981z" />
<glyph unicode="M" horiz-adv-x="1716" d="M131 0v1495h281l444 -616l461 616h268v-1495h-282v1049l-449 -603l-436 592v-1038h-287z" />
<glyph unicode="N" horiz-adv-x="1505" d="M131 0v1495h309l656 -1018v1018h278v-1495h-287l-675 1051v-1051h-281z" />
<glyph unicode="O" horiz-adv-x="1718" d="M94 748q0 160 60 299q60 140 162 243q104 105 243 165q142 61 299 61t300 -61q140 -60 244 -165q106 -107 164 -243q60 -140 60 -299q0 -162 -59 -299q-60 -140 -164 -244q-106 -106 -245 -165q-141 -60 -300 -60q-160 0 -299 60t-243 165q-101 103 -162 244 q-60 139 -60 299zM385 748q0 -98 36 -187q36 -88 99 -154q65 -68 151 -105q88 -38 187 -38q102 0 190 38q84 36 151 105q64 65 100 154t36 187q0 101 -37 188q-38 89 -100 154t-151 104t-189 39t-187 -39q-90 -41 -151 -104q-63 -66 -99 -154t-36 -188z" />
<glyph unicode="P" horiz-adv-x="1380" d="M131 0v1495h590q125 0 228 -42t177 -116q75 -75 115 -173q41 -100 41 -212q0 -110 -41 -210q-40 -97 -115 -174q-71 -72 -177 -117q-102 -43 -230 -43h-297v-408h-291zM422 676h280q67 0 117 20q55 22 91 58q39 39 59 88t20 110q0 64 -20 113t-59 88q-34 34 -91 57 q-53 21 -117 21h-280v-555z" />
<glyph unicode="Q" horiz-adv-x="1722" d="M94 748q0 160 60 299q60 140 162 243q104 105 243 165q142 61 299 61t300 -61q140 -60 244 -165q106 -107 164 -243q60 -140 60 -299q0 -133 -47 -256q-46 -121 -129 -220l213 -272h-334l-78 96q-91 -57 -188 -86q-100 -30 -205 -30q-160 0 -299 60t-243 165 q-101 103 -162 244q-60 139 -60 299zM379 748q0 -103 37 -190q39 -93 101 -156q64 -66 152 -105q87 -39 189 -39q65 0 118 14q59 15 107 41l-327 418h334l184 -235q31 53 50 118q17 59 17 134q0 104 -36 190q-38 92 -103 158q-66 68 -153 106q-89 39 -191 39t-189 -39 q-89 -40 -152 -106q-62 -65 -101 -158q-37 -89 -37 -190z" />
<glyph unicode="R" horiz-adv-x="1376" d="M131 0v1495h606q129 0 231 -39q103 -39 172 -107q70 -69 108 -161q38 -93 38 -199q0 -143 -68 -260q-69 -119 -194 -182l295 -547h-324l-239 471h-336v-471h-289zM420 735h295q71 0 124 21t87 55q34 35 51 81q16 45 16 95q0 110 -69 176t-209 66h-295v-494z" />
<glyph unicode="S" horiz-adv-x="1304" d="M16 287l252 200q72 -115 174 -176q99 -59 236 -59q123 0 184 52q62 53 62 134q0 50 -26 85q-25 34 -72 58t-110 39q-19 4 -42 9.5t-53 12.5t-48 11q-78 17 -168 44q-83 25 -151 72q-67 46 -111 119q-43 71 -43 187q0 92 39 173q39 80 110 141q69 59 168 94t214 35 q97 0 180 -18q87 -19 153 -50q72 -34 131 -81q57 -45 117 -112l-235 -184q-62 88 -140 136q-83 51 -210 51q-122 0 -177 -53t-55 -126q0 -45 27 -73q29 -30 72 -49q38 -16 106 -33q23 -6 67.5 -16.5t63.5 -14.5q85 -18 174 -45q90 -27 159 -76q72 -50 116 -127 q45 -78 45 -198q0 -97 -39 -182q-38 -84 -111 -149t-173 -102q-98 -36 -226 -36q-122 0 -219 22q-95 21 -178 64q-83 42 -145 97q-69 61 -118 124z" />
<glyph unicode="T" horiz-adv-x="1296" d="M92 1229v266h1112v-266h-411v-1229h-285v1229h-416z" />
<glyph unicode="U" horiz-adv-x="1435" d="M127 575v920h295v-926q0 -139 81 -225t214 -86q132 0 215 86q82 85 82 225v926h295v-920q0 -139 -43 -249q-44 -113 -121 -188q-79 -78 -187 -118q-107 -40 -241 -40q-135 0 -242 40q-106 40 -186 118q-78 76 -120 188q-42 111 -42 249z" />
<glyph unicode="V" horiz-adv-x="1476" d="M31 1495h305l401 -1110l406 1110h303l-565 -1495h-285z" />
<glyph unicode="W" horiz-adv-x="2150" d="M55 1495h297l275 -1040l311 1040h279l309 -1042l280 1042h291l-426 -1495h-285l-311 1055l-313 -1055h-291z" />
<glyph unicode="X" horiz-adv-x="1363" d="M45 0l469 766l-442 729h317l295 -491l293 491h319l-448 -731l469 -764h-328l-309 522l-311 -522h-324z" />
<glyph unicode="Y" horiz-adv-x="1378" d="M35 1495h317l338 -594l338 594h315l-509 -870v-625h-291v631z" />
<glyph unicode="Z" horiz-adv-x="1316" d="M106 0v268l758 961h-733v266h1071v-260l-756 -963h764v-272h-1104z" />
<glyph unicode="[" horiz-adv-x="800" d="M109 -471v1966h585v-270h-301v-1426h301v-270h-585z" />
<glyph unicode="\" horiz-adv-x="1126" d="M59 1495h301l709 -1495h-301z" />
<glyph unicode="]" horiz-adv-x="800" d="M109 -201h299v1426h-299v270h585v-1966h-585v270z" />
<glyph unicode="^" horiz-adv-x="1040" d="M186 1135l242 348h184l242 -348h-219l-115 174l-112 -174h-222z" />
<glyph unicode="_" horiz-adv-x="1040" d="M109 -20h825v-240h-825v240z" />
<glyph unicode="`" horiz-adv-x="1040" d="M244 1581h288l234 -350h-211z" />
<glyph unicode="a" horiz-adv-x="1241" d="M72 307q0 174 133 273q132 98 364 98h291v14q0 91 -59 146t-180 55q-94 0 -158 -38t-103 -107l-260 129q83 110 210 181q125 70 313 70q245 0 378 -118q134 -119 134 -330v-680h-273v170q-62 -88 -167 -139q-111 -54 -238 -54q-181 0 -284 92q-101 91 -101 238zM367 332 q0 -121 172 -121q54 0 100 14q51 15 92 41q42 26 77 64q32 35 54 82v59h-260q-128 0 -181 -37q-54 -38 -54 -102z" />
<glyph unicode="b" horiz-adv-x="1343" d="M111 0v1616h280v-662q56 80 145 127t201 47q109 0 201 -39q98 -42 170 -116q76 -79 118 -182q44 -108 44 -238q0 -134 -45 -239q-44 -103 -119 -181q-71 -74 -169 -116q-93 -40 -198 -40q-110 0 -202 47q-94 48 -148 130v-154h-278zM375 555q0 -67 23 -122q23 -54 65 -98 t97 -67q57 -24 122 -24q64 0 119 24q53 23 97 67q43 43 66 98t23 122t-23 122t-66 98q-44 44 -97 67q-56 24 -119 24q-65 0 -122 -24q-55 -23 -97 -67q-41 -43 -65 -99q-23 -55 -23 -121z" />
<glyph unicode="c" horiz-adv-x="1255" d="M76 553q0 121 44 227q44 105 123 183q79 77 184 121q106 44 228 44q99 0 181 -25t152 -72t121 -110t85 -143l-260 -104q-35 90 -107 140q-73 50 -168 50q-63 0 -118 -24q-56 -24 -97 -67q-40 -41 -64 -99q-24 -57 -24 -121q0 -63 24 -119t65 -97q43 -43 98 -67t119 -24 q97 0 168 53t106 139l264 -108q-73 -155 -208 -253q-138 -100 -335 -100q-122 0 -231 46q-107 45 -184 122q-79 79 -122 183q-44 106 -44 225z" />
<glyph unicode="d" horiz-adv-x="1343" d="M76 553q0 130 44 238q42 103 118 182q72 75 171 116q94 39 203 39q112 0 198 -43q89 -44 144 -120v651h279v-1616h-279v152q-59 -81 -148 -128t-198 -47q-103 0 -198 40q-98 42 -170 116q-75 78 -119 181q-45 105 -45 239zM356 555q0 -63 25 -122q23 -54 65 -98 q42 -43 98 -67q57 -24 120 -24q64 0 121 24q56 24 98 67q40 42 64 98q24 57 24 122q0 64 -24 121q-24 58 -64 99q-42 43 -98 67q-57 24 -121 24q-63 0 -120 -24q-56 -24 -98 -67q-42 -44 -65 -98q-25 -59 -25 -122z" />
<glyph unicode="e" horiz-adv-x="1302" d="M76 551q0 120 44 226t122 184q77 77 184 122q106 45 229 45q126 0 230 -43q105 -44 180 -117t119 -180q43 -104 43 -227v-106h-879q28 -107 112 -171q82 -63 206 -63q98 0 165 40q69 41 109 108l231 -136q-85 -118 -204 -186q-123 -70 -305 -70q-130 0 -242 45 q-111 45 -186 121q-76 78 -117 183q-41 106 -41 225zM356 676h590q-29 106 -104 159q-76 54 -187 54q-107 0 -186 -58t-113 -155z" />
<glyph unicode="f" horiz-adv-x="847" d="M53 852v254h183v39q0 139 23 225q24 90 78 144q55 55 145 77q94 23 227 23h73v-258h-47q-76 0 -117 -7t-66 -29q-24 -21 -30 -59q-6 -37 -6 -102v-53h266v-254h-266v-852h-280v852h-183z" />
<glyph unicode="g" horiz-adv-x="1349" d="M76 555q0 130 44 238q42 104 118 181q73 74 171 115q94 39 203 39q112 0 200 -45q90 -46 144 -122v145h283v-1024q0 -121 -43 -222t-120 -175t-183 -116q-107 -42 -234 -42q-190 0 -319 54q-128 54 -223 165l233 182q54 -70 123 -110q67 -39 178 -39q67 0 123 21 q54 20 96 61t64 93q22 53 22 120v84q-59 -82 -149 -128q-89 -46 -199 -46q-103 0 -198 40q-99 42 -170 114q-74 76 -119 180q-45 105 -45 237zM356 557q0 -63 25 -122q23 -54 65 -98q42 -43 98 -67q57 -24 120 -24q64 0 121 24q56 24 98 67q40 42 64 98q24 57 24 122 t-24 122q-24 56 -64 98q-42 43 -98 67q-57 24 -121 24q-65 0 -120 -23q-58 -24 -98 -66q-41 -43 -65 -99q-25 -59 -25 -123z" />
<glyph unicode="h" horiz-adv-x="1249" d="M111 0v1614h280v-643q56 74 137 115q82 42 185 42q100 0 178 -31q80 -32 135 -91q57 -61 86 -145q31 -88 31 -193v-668h-291v625q0 119 -56 187q-57 69 -169 69q-100 0 -168 -71t-68 -200v-610h-280z" />
<glyph unicode="i" horiz-adv-x="509" d="M74 1417q0 79 51 132t129 53q82 0 132 -53t50 -132q0 -77 -50 -129q-50 -51 -132 -51q-80 0 -130 51q-50 52 -50 129zM111 0v1106h288v-1106h-288z" />
<glyph unicode="j" horiz-adv-x="509" d="M-104 -178q73 0 114 7q44 7 66 30q22 22 28 64q7 49 7 110v1073h288v-1077q0 -136 -22 -224q-22 -89 -77 -145q-53 -55 -143 -79q-85 -23 -223 -23h-38v264zM74 1417q0 79 51 132t129 53q82 0 132 -53t50 -132q0 -77 -50 -129q-50 -51 -132 -51q-80 0 -130 51 q-50 52 -50 129z" />
<glyph unicode="k" horiz-adv-x="1230" d="M111 0v1614h280v-1022l449 514h338l-416 -471l436 -635h-324l-313 457l-170 -191v-266h-280z" />
<glyph unicode="l" horiz-adv-x="503" d="M111 0v1614h282v-1614h-282z" />
<glyph unicode="m" horiz-adv-x="1912" d="M111 0v1106h282v-131q50 71 129 112t178 41q125 0 209 -48t129 -138q52 85 143 136q89 50 203 50q213 0 317 -119q105 -120 105 -329v-680h-290v639q0 111 -49 177q-48 65 -156 65q-97 0 -154 -65q-57 -64 -57 -195v-621h-289v647q0 110 -47 172t-152 62q-100 0 -158 -66 q-59 -67 -59 -201v-614h-284z" />
<glyph unicode="n" d="M111 0v1106h282v-139q50 73 136 118q82 43 188 43q197 0 312 -121q116 -122 116 -339v-668h-289v625q0 119 -56 187q-57 69 -169 69q-100 0 -168 -71t-68 -200v-610h-284z" />
<glyph unicode="o" horiz-adv-x="1320" d="M76 553q0 118 44 224q44 107 123 184q78 77 185 122q106 45 231 45q123 0 231 -45q107 -45 186 -122q78 -76 124 -184q45 -105 45 -224q0 -118 -45 -223q-45 -104 -123 -184q-76 -78 -185 -123q-110 -46 -233 -46q-122 0 -231 46q-107 45 -185 123q-80 80 -123 184 q-44 106 -44 223zM358 555q0 -65 24 -122t64 -97q42 -42 97 -66t119 -24q62 0 118 24q55 24 97 66q40 40 64 97t24 122q0 64 -24 121q-25 59 -64 98q-42 42 -97 66q-56 24 -118 24q-64 0 -119 -24t-97 -66q-39 -39 -64 -98q-24 -57 -24 -121z" />
<glyph unicode="p" horiz-adv-x="1343" d="M111 -442v1548h278v-154q55 82 146 129t202 47q109 0 201 -39q98 -42 170 -116q76 -79 118 -182q44 -108 44 -238q0 -134 -45 -239q-44 -103 -119 -181q-71 -74 -169 -116q-93 -40 -198 -40q-113 0 -202 40q-91 41 -146 118v-577h-280zM375 555q0 -67 23 -122 q23 -54 65 -98t97 -67q57 -24 122 -24q64 0 119 24q53 23 97 67q43 43 66 98t23 122t-23 122t-66 98q-44 44 -97 67q-56 24 -119 24q-65 0 -122 -24q-55 -23 -97 -67q-41 -43 -65 -99q-23 -55 -23 -121z" />
<glyph unicode="q" horiz-adv-x="1345" d="M76 553q0 130 44 238q42 103 118 182q72 75 171 116q94 39 203 39q112 0 200 -45q90 -46 144 -122v145h279v-1548h-281v581q-57 -78 -146 -120q-88 -42 -200 -42q-103 0 -198 40q-98 42 -170 116q-75 78 -119 181q-45 105 -45 239zM356 555q0 -63 25 -122q23 -54 65 -98 q42 -43 98 -67q57 -24 120 -24q64 0 121 24q56 24 98 67q40 42 64 98q24 57 24 122q0 64 -24 121q-24 58 -64 99q-42 43 -98 67q-57 24 -121 24q-63 0 -120 -24q-56 -24 -98 -67q-42 -44 -65 -98q-25 -59 -25 -122z" />
<glyph unicode="r" horiz-adv-x="915" d="M111 0v1106h278v-170q40 97 120 144q79 46 185 46q56 0 104 -12q45 -11 83 -31l-103 -278q-22 16 -61 28q-36 11 -86 11q-107 0 -174 -61q-66 -60 -66 -199v-584h-280z" />
<glyph unicode="s" horiz-adv-x="1091" d="M35 252l272 106q73 -149 254 -149q86 0 131 36t45 85q0 31 -20 50q-21 20 -57 33q-30 11 -82 23q-31 7 -101 21q-83 18 -140 35q-74 22 -127 57q-58 38 -91 93q-35 58 -35 144q0 71 33 134q34 65 92 110q64 49 142 75q86 28 186 28q175 0 286 -63q112 -64 189 -173 l-258 -104q-35 56 -87 86q-53 30 -130 30q-85 0 -124 -29q-40 -30 -40 -77q0 -54 65 -75q67 -21 187 -48q83 -18 140 -35q72 -21 129 -58q56 -36 95 -98q37 -59 37 -147q0 -64 -29 -130q-29 -65 -88 -117t-148 -85t-210 -33q-198 0 -325 71q-125 70 -191 204z" />
<glyph unicode="t" horiz-adv-x="899" d="M49 856v250h205v240l278 163v-403h291v-250h-291v-455q0 -88 34 -122q35 -35 87 -35q56 0 103 41l129 -222q-53 -41 -120 -62q-66 -21 -144 -21q-175 0 -271 93t-96 318v465h-205z" />
<glyph unicode="u" d="M109 442v664h288v-625q0 -116 56 -184t170 -68q98 0 165 70q66 69 66 199v608l287 2v-1106l-283 -2v139q-51 -75 -135 -119q-82 -43 -184 -43q-205 0 -318 123q-112 122 -112 342z" />
<glyph unicode="v" horiz-adv-x="1189" d="M27 1106h299l272 -746l274 746h293l-434 -1106h-280z" />
<glyph unicode="w" horiz-adv-x="1869" d="M37 1106h287l223 -721l262 721h252l258 -725l231 725h287l-375 -1106h-266l-264 721l-266 -721h-271z" />
<glyph unicode="x" horiz-adv-x="1236" d="M27 0l413 567l-391 539h336l231 -328l234 328h332l-394 -541l422 -565h-342l-254 346l-247 -346h-340z" />
<glyph unicode="y" horiz-adv-x="1214" d="M-72 -336l164 230q32 -34 66 -50q38 -18 84 -18q76 0 126 39q52 41 91 137l18 45l-444 1059h301l287 -713l272 713h295l-477 -1165q-46 -113 -88 -180q-45 -72 -101 -116q-58 -45 -123 -64q-66 -19 -155 -19q-90 0 -171 28q-83 29 -145 74z" />
<glyph unicode="z" horiz-adv-x="1140" d="M84 0v252l616 608h-604v246h953v-252l-615 -606h623v-248h-973z" />
<glyph unicode="{" horiz-adv-x="841" d="M86 377v260q61 0 97 9q37 9 56 33q20 24 24 63q5 45 5 102v207q0 125 23 212q22 84 75 137t139 74q87 21 218 21h27v-260q-63 0 -105 -8q-38 -7 -60 -29t-29 -58q-7 -35 -7 -96v-202q0 -130 -30 -213t-111 -123q80 -39 111 -122q30 -81 30 -212v-192q0 -62 7 -97t29 -57 t60 -29q42 -8 105 -8v-260h-27q-131 0 -218 21q-85 21 -139 73q-52 51 -75 137q-23 87 -23 213v197q0 56 -5 101q-4 40 -24 64q-19 24 -56 33q-36 9 -97 9z" />
<glyph unicode="|" horiz-adv-x="509" d="M115 -471v1966h282v-1966h-282z" />
<glyph unicode="}" horiz-adv-x="841" d="M94 -209q65 0 101 7q38 7 61 27q24 21 31 55q8 38 8 95v197q0 130 29 212t108 122q-80 40 -108 123q-29 84 -29 213v207q0 54 -8 94q-7 35 -31 56q-23 20 -61 27q-36 7 -101 7v262h25q131 0 218 -21t140 -74q54 -54 76 -137q22 -84 22 -212v-207q0 -48 6 -102 q4 -39 24 -63t55 -33q36 -9 98 -9v-260q-62 0 -98 -9q-35 -9 -55 -33t-24 -64q-6 -54 -6 -101v-197q0 -129 -22 -213q-22 -85 -76 -137t-140 -73q-87 -21 -218 -21h-25v262z" />
<glyph unicode="~" horiz-adv-x="1050" d="M168 1159q-2 130 55 207q57 78 162 78q49 0 88 -17q49 -22 68 -32q9 -6 27 -17.5t26 -16.5q24 -15 51 -15q50 0 49 88h170q2 -130 -52 -206q-54 -77 -165 -77q-63 0 -103 20q-49 25 -75 41q-23 16 -43 24q-21 9 -41 9q-26 0 -38 -19q-11 -18 -11 -67h-168z" />
<glyph unicode="&#xa1;" horiz-adv-x="536" d="M90 874q0 79 49 128q51 51 129 51t129 -51q49 -49 49 -128q0 -77 -50 -129q-50 -51 -128 -51q-80 0 -129 51q-49 50 -49 129zM125 -227q0 215 16 410q17 203 45 382h164q28 -179 45 -382q17 -207 17 -410v-244h-287v244z" />
<glyph unicode="&#xa2;" horiz-adv-x="1204" d="M88 512q0 91 29 176q28 84 80 152q51 68 122 115q73 49 158 71v264h285v-260q128 -30 223 -116q94 -85 139 -203l-258 -97q-29 78 -91 123q-63 45 -148 45q-59 0 -103 -20q-51 -23 -82 -57q-35 -38 -54 -86t-19 -107q0 -58 19 -105q20 -49 55 -84q36 -36 83 -57 q44 -20 103 -20q85 0 147 47q61 46 90 121l260 -101q-45 -114 -140 -201q-94 -86 -224 -116v-262h-285v264q-86 23 -158 72q-71 49 -122 116q-51 68 -80 151q-29 84 -29 175z" />
<glyph unicode="&#xa3;" horiz-adv-x="1495" d="M94 227q0 108 70 181q68 71 198 71q63 0 113 -17q60 -21 103 -44q-7 52 -36 108q-17 33 -63 113h-307v225h186q-15 42 -29 104q-12 54 -12 115q0 96 35 177q33 77 97 136q61 56 147 88q87 32 188 32q186 0 301 -74t175 -193l-271 -129q-25 65 -74 102q-50 38 -122 38 q-80 0 -131 -51q-50 -50 -50 -124q0 -53 17 -110q15 -52 41 -111h352v-225h-252q18 -51 29 -96q12 -50 12 -101q0 -93 -20 -163q42 -30 81 -47q38 -17 82 -17q79 0 109 39q31 40 31 131v80h295v-117q0 -82 -21 -149q-21 -68 -64 -117q-42 -48 -114 -76q-66 -26 -168 -26 q-93 0 -169 36q-83 39 -151 86q-48 -58 -119 -93q-69 -34 -169 -34q-163 0 -242 68q-78 67 -78 184zM315 225q0 -28 25 -48q23 -19 70 -19q73 0 122 67q-34 22 -75 44q-35 18 -68 18q-37 0 -55 -18q-19 -19 -19 -44z" />
<glyph unicode="&#xa4;" horiz-adv-x="1662" d="M131 1280l191 182l247 -260q62 36 127 53q71 19 144 19q68 0 138 -19q66 -18 126 -51l239 246l189 -184l-238 -244q80 -128 80 -281q0 -154 -80 -282l238 -246l-189 -182l-239 243q-112 -65 -264 -65q-78 0 -147 18q-62 16 -128 54l-243 -250l-189 184l246 252 q-35 60 -54 129q-20 71 -20 145q0 75 20 147q19 70 54 130zM586 741q0 -56 19 -104q20 -50 53 -86t80 -57q46 -21 102 -21t102 21q51 23 82 57q35 38 54 86q20 51 20 104q0 54 -20 105q-19 48 -54 86q-33 36 -82 58t-102 22t-102 -22q-46 -21 -80 -58q-33 -36 -53 -86 q-19 -48 -19 -105z" />
<glyph unicode="&#xa5;" horiz-adv-x="1366" d="M76 1495h319l289 -432l291 432h315l-467 -682h326v-229h-326v-146h326v-229h-326v-209h-284v209h-322v229h322v146h-322v229h322v4z" />
<glyph unicode="&#xa6;" horiz-adv-x="532" d="M115 416h282v-887h-282v887zM115 610v885h282v-885h-282z" />
<glyph unicode="&#xa7;" horiz-adv-x="1284" d="M90 768q0 89 51 152q52 64 129 92q-67 76 -67 180q0 67 27 127q26 58 83 104t136 70q81 24 184 23q95 0 175 -24t138 -62q56 -36 98 -90q40 -51 56 -105l-269 -76q-11 58 -62 98q-53 41 -142 41q-72 0 -114 -24t-42 -72q0 -53 77 -83q72 -28 202 -58q101 -23 179 -49 q82 -27 139 -64q58 -37 91 -88t33 -123q0 -84 -45 -144t-117 -93q34 -34 54 -79t20 -102q0 -72 -33 -135q-33 -62 -93 -109q-59 -46 -147 -72q-82 -25 -192 -23q-104 0 -188 25q-86 26 -151 68q-63 41 -106 96q-42 54 -59 112l281 86q18 -67 84 -111q65 -43 155 -43 q75 0 121 24q47 24 47 70q0 29 -22 47t-62 33q-33 13 -93 26q-10 2 -51 10.5t-65 14.5q-102 24 -176 49q-77 26 -139 65q-58 36 -92 90q-33 52 -33 126zM373 795q0 -55 84 -84q93 -31 237 -64q34 -11 69 -18q26 -6 64 -19q43 16 62 38q20 23 20 52q0 56 -84 84 q-93 31 -237 64q-38 8 -66 18q-40 14 -59 21q-43 -10 -67 -36q-23 -24 -23 -56z" />
<glyph unicode="&#xa8;" horiz-adv-x="1040" d="M129 1380q0 73 43 117q43 45 115 45q71 0 116 -45q46 -46 46 -117t-46 -115t-116 -44q-71 0 -115 44q-43 43 -43 115zM588 1380q0 72 45 117t115 45q71 0 116 -45t45 -117t-45 -115q-46 -44 -116 -44q-72 0 -116 44t-44 115z" />
<glyph unicode="&#xa9;" horiz-adv-x="1722" d="M90 690q0 157 61 299q60 140 164 244q106 106 245 165q141 60 302 60q159 0 300 -60q138 -59 245 -164q105 -104 165 -244q60 -141 60 -300t-60 -300q-59 -139 -165 -245q-104 -104 -245 -164q-143 -61 -300 -61q-159 0 -302 61q-141 60 -245 164t-164 245 q-61 143 -61 300zM330 690q0 -111 40 -209q41 -101 111 -172q71 -72 169 -116q96 -43 212 -43q114 0 210 43q100 45 170 116q75 76 114 172q41 100 41 209q0 110 -42 209q-42 98 -114 172t-169 117q-96 43 -210 43q-116 0 -212 -43q-98 -44 -168 -117q-71 -74 -111 -172 q-41 -100 -41 -209zM459 690q0 84 30 159q29 73 86 130q55 55 132 87q78 32 163 32q122 0 222 -65q97 -63 143 -161l-217 -98q-16 43 -52 69q-38 27 -98 27q-76 0 -128 -52t-52 -128q0 -78 52 -130t128 -52q59 0 100 30q39 29 54 70l221 -84q-45 -105 -144 -174t-229 -69 q-91 0 -164 32q-77 34 -131 88q-57 57 -86 130q-30 75 -30 159z" />
<glyph unicode="&#xaa;" horiz-adv-x="817" d="M90 1069q0 92 73 145q74 54 208 54h151v6q0 82 -114 82q-50 0 -85 -20t-59 -54l-160 88q50 62 125 99q78 38 183 38q136 0 209 -63t73 -176v-365h-172v92q-30 -47 -93 -75q-64 -29 -134 -29q-98 0 -151 49q-54 50 -54 129zM279 1079q0 -21 18 -33t47 -12q48 0 103 25 q52 24 75 65v15h-147q-96 0 -96 -60z" />
<glyph unicode="&#xab;" horiz-adv-x="1038" d="M125 442v158l377 231v-190l-203 -121l203 -119v-190zM539 442v158l376 231v-190l-202 -121l202 -119v-190z" />
<glyph unicode="&#xac;" horiz-adv-x="1298" d="M92 797v272h1106v-725h-291v453h-815z" />
<glyph unicode="&#xad;" horiz-adv-x="972" d="M109 397v244h757v-244h-757z" />
<glyph unicode="&#xae;" horiz-adv-x="1722" d="M90 512q0 157 61 300q60 142 164 244q107 105 245 164q141 60 302 60t300 -59q141 -60 245 -164q106 -106 165 -245q60 -141 60 -300t-60 -300q-59 -139 -165 -245q-104 -104 -245 -164q-139 -59 -300 -59t-302 60q-138 59 -245 164q-104 102 -164 244q-61 143 -61 300z M330 512q0 -111 40 -209q41 -101 111 -172q72 -74 169 -117q96 -43 212 -43q114 0 210 43q98 44 170 117q75 76 114 172q41 100 41 209q0 111 -42 210q-42 100 -114 173q-72 74 -169 117q-96 43 -210 43q-116 0 -212 -43q-98 -44 -168 -117t-111 -173t-41 -210zM547 145v746 h350q78 0 138 -21q64 -22 103 -56q41 -35 64 -84t23 -103q0 -81 -36 -142t-108 -90l148 -250h-256l-195 373v-373h-231zM778 518h94q47 0 82 23t35 71q0 53 -37 71q-35 17 -84 17h-90v-182z" />
<glyph unicode="&#xaf;" horiz-adv-x="1040" d="M244 1255v195h555v-195h-555z" />
<glyph unicode="&#xb0;" horiz-adv-x="911" d="M111 1171q0 74 26 135t74 109q46 46 111 74q63 27 135 27q71 0 134 -27q61 -26 109 -74t74 -109q27 -63 27 -135q0 -71 -27 -134q-26 -61 -74 -109q-50 -50 -109 -75q-65 -28 -134 -28q-70 0 -135 28q-63 27 -111 75t-74 109t-26 134zM346 1169q0 -45 33 -76 q34 -32 78 -32q45 0 77 32q31 31 31 76q0 46 -31 78q-31 33 -77 33q-45 0 -78 -33t-33 -78z" />
<glyph unicode="&#xb1;" horiz-adv-x="978" d="M111 240v239h757v-239h-757zM111 852v240h262v260h235v-260h260v-240h-260v-258h-235v258h-262z" />
<glyph unicode="&#xb2;" horiz-adv-x="782" d="M57 1303q46 98 131 151t203 53q141 0 227 -72q87 -73 87 -188q0 -57 -22 -104q-21 -46 -55 -81q-35 -37 -79 -63q-45 -27 -90 -51q-55 -30 -92 -54q-38 -25 -43 -54h378v-209h-620v168q0 63 21 111q19 44 57 85q36 39 78 65q51 32 84 50q55 30 109 65q46 30 46 70 q0 29 -21 48q-22 20 -65 20q-48 0 -85 -32q-35 -31 -54 -79z" />
<glyph unicode="&#xb3;" horiz-adv-x="782" d="M25 756l194 147q28 -40 64 -60q35 -20 88 -20q43 0 73 21q31 22 31 57q0 36 -32 54t-85 18h-82v196h70q53 0 82 20t29 54q0 70 -103 70q-45 0 -80 -22q-32 -20 -55 -56l-180 131q49 59 134 101q81 40 187 40q148 0 239 -67t91 -187q0 -56 -25 -99q-26 -44 -73 -73 q55 -30 87 -77t32 -113q0 -59 -24 -109q-23 -48 -69 -86q-43 -36 -107 -57q-63 -21 -138 -21q-124 0 -205 34q-80 34 -143 104z" />
<glyph unicode="&#xb4;" horiz-adv-x="1040" d="M244 1231l233 350h289l-309 -350h-213z" />
<glyph unicode="&#xb5;" horiz-adv-x="1173" d="M106 -471v1495h289v-547q0 -118 48 -184t141 -66q85 0 143 61q57 60 57 173v563h283v-1024h-276v115q-41 -64 -105 -99q-62 -34 -143 -34q-47 0 -85 12q-37 12 -71 35v-500h-281z" />
<glyph unicode="&#xb6;" horiz-adv-x="1495" d="M84 1057q0 94 34 172q35 81 93 139t140 93q80 34 175 34h856v-1495h-254v1231h-163v-1231h-254v618h-183q-97 0 -177 34q-82 35 -140 93q-57 57 -93 140q-34 78 -34 172z" />
<glyph unicode="&#xb7;" horiz-adv-x="524" d="M88 516q0 78 48 127t126 49t126 -49t48 -127t-48 -125q-49 -47 -126 -47t-126 47q-48 47 -48 125z" />
<glyph unicode="&#xb8;" horiz-adv-x="1040" d="M178 -395l166 110q32 -27 71 -46q34 -17 89 -17q46 0 75 16t29 43q0 53 -110 53h-107v267h187v-135q104 0 168 -50q63 -50 63 -129q0 -47 -25 -91q-24 -43 -67 -72q-46 -32 -103 -49t-129 -17q-93 0 -171 32q-73 30 -136 85z" />
<glyph unicode="&#xb9;" horiz-adv-x="585" d="M63 1083v228h7q94 0 137 45q43 44 43 139h213v-864h-219v551q-18 -47 -64 -73t-104 -26h-13z" />
<glyph unicode="&#xba;" horiz-adv-x="778" d="M84 1198q0 64 24 121q25 59 65 98q45 44 97 66q55 24 121 24q63 0 119 -24q52 -22 97 -66q42 -40 66 -98q23 -55 23 -121q0 -65 -23 -120q-24 -56 -66 -97q-45 -44 -97 -66q-56 -24 -119 -24q-65 0 -121 24q-52 22 -97 66q-41 39 -65 97q-24 57 -24 120zM281 1198 q0 -45 31 -79t79 -34t78 34q31 36 31 79q0 47 -31 83q-30 34 -78 34t-79 -34t-31 -83z" />
<glyph unicode="&#xbb;" horiz-adv-x="1038" d="M125 211v190l203 119l-203 121v190l377 -231v-158zM539 211v190l202 119l-202 121v190l376 -231v-158z" />
<glyph unicode="&#xbc;" horiz-adv-x="1736" d="M104 1083v228h7q93 0 137 45q43 44 43 139h213v-864h-219v551q-18 -47 -64 -73t-104 -26h-13zM141 0l1080 1495h317l-1079 -1495h-318zM936 172v199l367 493h210v-502h115v-190h-115v-172h-208v172h-369zM1155 362h150v205z" />
<glyph unicode="&#xbd;" horiz-adv-x="1837" d="M104 1083v228h7q93 0 137 45q43 44 43 139h213v-864h-219v551q-18 -47 -64 -73t-104 -26h-13zM141 0l1080 1495h317l-1079 -1495h-318zM1083 672q46 98 131 151q86 54 203 54q141 0 228 -73q86 -72 86 -188q0 -57 -22 -104q-21 -46 -55 -81q-33 -34 -79 -62 q-60 -36 -90 -52q-55 -30 -92 -54q-38 -25 -43 -54h379v-209h-621v168q0 64 21 112q19 44 57 85q33 36 78 64q51 32 84 50q55 30 109 65q46 30 46 70q0 30 -21 49q-20 19 -65 19q-48 0 -85 -32q-35 -31 -54 -79z" />
<glyph unicode="&#xbe;" horiz-adv-x="1898" d="M55 756l195 147q28 -41 63 -60q35 -20 88 -20q44 0 74 21q31 22 31 57q0 36 -32 54q-31 18 -85 18h-82v196h70q53 0 82 20q28 19 28 54q0 70 -102 70q-45 0 -80 -22q-32 -20 -55 -56l-180 131q49 59 134 101q81 40 187 40q148 0 239 -67t91 -187q0 -55 -26 -99 q-26 -45 -72 -73q55 -30 87 -77q31 -46 31 -113q0 -62 -23 -109q-23 -48 -69 -86q-43 -36 -107 -57q-63 -21 -139 -21q-123 0 -204 34q-82 34 -144 104zM303 0l1079 1495h318l-1079 -1495h-318zM1100 172v199l366 493h211v-502h115v-190h-115v-172h-209v172h-368zM1319 362 h149v205z" />
<glyph unicode="&#xbf;" horiz-adv-x="1150" d="M104 -72q0 94 28 159q26 60 71 104q46 45 91 74q46 30 91 69t71 88q27 51 27 133v12h246v-12q0 -117 -24 -193q-22 -71 -63 -125q-38 -50 -82 -82q-34 -25 -82 -63q-39 -31 -62 -67q-25 -39 -25 -95q0 -76 54 -125q53 -49 143 -49q85 0 141 47q55 46 80 117l254 -108 q-53 -136 -173 -220t-312 -84q-102 0 -192 31q-85 29 -149 87t-98 133q-35 78 -35 169zM428 872q0 80 50 130q51 51 128 51q79 0 130 -51q50 -50 50 -130q0 -78 -50 -128t-130 -50q-79 0 -129 50q-49 49 -49 128z" />
<glyph unicode="&#xc0;" horiz-adv-x="1476" d="M31 0l565 1495h285l565 -1495h-297l-98 272h-625l-98 -272h-297zM354 1970h289l234 -350h-211zM522 535h432l-215 593z" />
<glyph unicode="&#xc1;" horiz-adv-x="1476" d="M31 0l565 1495h285l565 -1495h-297l-98 272h-625l-98 -272h-297zM522 535h432l-215 593zM633 1620l233 350h289l-309 -350h-213z" />
<glyph unicode="&#xc2;" horiz-adv-x="1476" d="M31 0l565 1495h285l565 -1495h-297l-98 272h-625l-98 -272h-297zM393 1622l244 352h190l244 -352h-225l-117 176l-113 -176h-223zM522 535h432l-215 593z" />
<glyph unicode="&#xc3;" horiz-adv-x="1476" d="M31 0l565 1495h285l565 -1495h-297l-98 272h-625l-98 -272h-297zM377 1622q0 137 56 209q57 74 159 74q48 0 88 -16q29 -11 70 -34q8 -4 26.5 -14.5t27.5 -16.5q27 -16 52 -16q55 0 55 88h172q0 -129 -52 -205q-53 -77 -165 -77q-58 0 -99 18q-39 17 -73 39 q-21 15 -46 27q-20 10 -48 10q-29 0 -42 -19t-13 -67h-168zM522 535h432l-215 593z" />
<glyph unicode="&#xc4;" horiz-adv-x="1476" d="M31 0l565 1495h285l565 -1495h-297l-98 272h-625l-98 -272h-297zM338 1769q0 73 43 117q43 45 115 45q71 0 116 -45t45 -117q0 -71 -45 -115q-46 -44 -116 -44q-71 0 -115 44q-43 43 -43 115zM522 535h432l-215 593zM797 1769q0 72 45 117t114 45q72 0 117 -45t45 -117 q0 -71 -45 -115q-46 -44 -117 -44t-115 44t-44 115z" />
<glyph unicode="&#xc5;" horiz-adv-x="1476" d="M31 0l536 1421q-65 65 -65 162q0 49 18 92t50 75t74 50q44 19 89 19q46 0 92 -19q43 -18 75 -50t50 -75q19 -46 19 -92q0 -91 -62 -158l539 -1425h-297l-98 272h-625l-98 -272h-297zM522 535h432l-215 593zM647 1581q0 -34 26 -60t60 -26h6q35 5 61 29q25 24 25 59 q0 37 -27 64q-26 26 -65 26q-35 0 -60 -27q-26 -28 -26 -65z" />
<glyph unicode="&#xc6;" horiz-adv-x="1998" d="M43 0l686 1495h1153v-270h-788l77 -338h711v-271h-647l80 -344h567v-272h-803l-59 260h-547l-117 -260h-313zM592 522h369l-123 545z" />
<glyph unicode="&#xc7;" horiz-adv-x="1605" d="M94 748q0 162 59 304q58 140 161 243q104 103 243 162q141 59 303 59q107 0 206 -27q100 -27 184 -76q88 -51 155 -118q72 -72 119 -152l-254 -160q-60 117 -163 183q-105 67 -245 67q-101 0 -189 -38q-90 -39 -151 -103q-63 -66 -99 -155t-36 -189q0 -97 35 -187 q33 -85 98 -153q63 -66 150 -104t188 -38q152 0 261 77q107 76 163 200l264 -142q-88 -174 -244 -286q-157 -113 -366 -131v-99q107 0 169 -49t62 -129q0 -49 -24 -91q-25 -43 -68 -73q-45 -31 -102 -48t-129 -17q-93 0 -171 32q-76 31 -136 84l165 111q32 -27 71 -46 q34 -17 89 -17q46 0 75 16q30 16 30 43q0 53 -111 53h-106v234q-145 18 -269 85q-121 66 -207 168q-88 105 -133 231q-47 132 -47 276z" />
<glyph unicode="&#xc8;" d="M131 0v1495h1006v-272h-717v-336h717v-273h-717v-340h717v-274h-1006zM293 1970h289l233 -350h-211z" />
<glyph unicode="&#xc9;" d="M131 0v1495h1006v-272h-717v-336h717v-273h-717v-340h717v-274h-1006zM506 1620l233 350h289l-309 -350h-213z" />
<glyph unicode="&#xca;" d="M131 0v1495h1006v-272h-717v-336h717v-273h-717v-340h717v-274h-1006zM303 1622l244 352h190l244 -352h-225l-117 176l-113 -176h-223z" />
<glyph unicode="&#xcb;" d="M131 0v1495h1006v-272h-717v-336h717v-273h-717v-340h717v-274h-1006zM248 1769q0 73 43 117q43 45 115 45q71 0 116 -45t45 -117q0 -71 -45 -115q-46 -44 -116 -44q-71 0 -115 44q-43 43 -43 115zM707 1769q0 72 45 117t114 45q72 0 117 -45t45 -117q0 -71 -45 -115 q-46 -44 -117 -44t-115 44t-44 115z" />
<glyph unicode="&#xcc;" horiz-adv-x="575" d="M-94 1970h289l233 -350h-211zM141 0v1495h293v-1495h-293z" />
<glyph unicode="&#xcd;" horiz-adv-x="575" d="M141 0v1495h293v-1495h-293zM154 1620l233 350h289l-309 -350h-213z" />
<glyph unicode="&#xce;" horiz-adv-x="575" d="M-49 1622l244 352h190l244 -352h-226l-116 176l-113 -176h-223zM141 0v1495h293v-1495h-293z" />
<glyph unicode="&#xcf;" horiz-adv-x="575" d="M-104 1769q0 73 43 117q43 45 114 45q72 0 117 -45t45 -117q0 -71 -45 -115q-46 -44 -117 -44q-70 0 -114 44q-43 43 -43 115zM141 0v1495h293v-1495h-293zM354 1769q0 72 45 117t115 45q72 0 117 -45t45 -117q0 -71 -45 -115q-46 -44 -117 -44q-72 0 -116 44t-44 115z " />
<glyph unicode="&#xd0;" horiz-adv-x="1542" d="M41 647v211h143v637h484q178 0 322 -57q143 -57 246 -158q101 -100 157 -237q55 -135 55 -295q0 -162 -58 -297q-60 -139 -162 -237q-105 -100 -245 -157q-141 -57 -309 -57h-490v647h-143zM475 270h180q114 0 206 37q94 38 158 102t100 151t36 188q0 103 -34 190 q-35 90 -98 153q-64 64 -159 100q-94 36 -217 36h-172v-369h326v-211h-326v-377z" />
<glyph unicode="&#xd1;" horiz-adv-x="1505" d="M131 0v1495h309l656 -1018v1018h278v-1495h-287l-675 1051v-1051h-281zM641 1597l233 351h289l-309 -351h-213z" />
<glyph unicode="&#xd2;" horiz-adv-x="1718" d="M94 748q0 160 60 299q60 140 162 243q104 105 243 165q142 61 299 61t300 -61q140 -60 244 -165q106 -107 164 -243q60 -140 60 -299q0 -162 -59 -299q-60 -140 -164 -244q-106 -106 -245 -165q-141 -60 -300 -60q-160 0 -299 60t-243 165q-101 103 -162 244 q-60 139 -60 299zM385 748q0 -98 36 -187q36 -88 99 -154q65 -68 151 -105q88 -38 187 -38q102 0 190 38q84 36 151 105q64 65 100 154t36 187q0 101 -37 188q-38 89 -100 154t-151 104t-189 39t-187 -39q-90 -41 -151 -104q-63 -66 -99 -154t-36 -188zM510 1980h289 l233 -350h-211z" />
<glyph unicode="&#xd3;" horiz-adv-x="1718" d="M94 748q0 160 60 299q60 140 162 243q104 105 243 165q142 61 299 61t300 -61q140 -60 244 -165q106 -107 164 -243q60 -140 60 -299q0 -162 -59 -299q-60 -140 -164 -244q-106 -106 -245 -165q-141 -60 -300 -60q-160 0 -299 60t-243 165q-101 103 -162 244 q-60 139 -60 299zM385 748q0 -98 36 -187q36 -88 99 -154q65 -68 151 -105q88 -38 187 -38q102 0 190 38q84 36 151 105q64 65 100 154t36 187q0 101 -37 188q-38 89 -100 154t-151 104t-189 39t-187 -39q-90 -41 -151 -104q-63 -66 -99 -154t-36 -188zM504 1632 q0 137 56 209q57 74 159 74q51 0 88 -15q29 -12 70 -34q11 -6 29.5 -17.5t24.5 -14.5q25 -15 52 -15q55 0 55 88h172q0 -130 -52 -206q-53 -77 -165 -77q-59 0 -99 18q-39 17 -73 39q-21 15 -46 27q-20 10 -48 10q-29 0 -42 -19t-13 -67h-168z" />
<glyph unicode="&#xd4;" horiz-adv-x="1718" d="M94 748q0 160 60 299q60 140 162 243q104 105 243 165q142 61 299 61t300 -61q140 -60 244 -165q106 -107 164 -243q60 -140 60 -299q0 -162 -59 -299q-60 -140 -164 -244q-106 -106 -245 -165q-141 -60 -300 -60q-160 0 -299 60t-243 165q-101 103 -162 244 q-60 139 -60 299zM385 748q0 -98 36 -187q36 -88 99 -154q65 -68 151 -105q88 -38 187 -38q102 0 190 38q84 36 151 105q64 65 100 154t36 187q0 101 -37 188q-38 89 -100 154t-151 104t-189 39t-187 -39q-90 -41 -151 -104q-63 -66 -99 -154t-36 -188zM520 1632l244 353 h190l244 -353h-225l-117 176l-113 -176h-223z" />
<glyph unicode="&#xd5;" horiz-adv-x="1718" d="M94 748q0 160 60 299q60 140 162 243q104 105 243 165q142 61 299 61t300 -61q140 -60 244 -165q106 -107 164 -243q60 -140 60 -299q0 -162 -59 -299q-60 -140 -164 -244q-106 -106 -245 -165q-141 -60 -300 -60q-160 0 -299 60t-243 165q-101 103 -162 244 q-60 139 -60 299zM385 748q0 -98 36 -187q36 -88 99 -154q65 -68 151 -105q88 -38 187 -38q102 0 190 38q84 36 151 105q64 65 100 154t36 187q0 101 -37 188q-38 89 -100 154t-151 104t-189 39t-187 -39q-90 -41 -151 -104q-63 -66 -99 -154t-36 -188zM504 1632 q0 137 56 209q57 74 159 74q51 0 88 -15q29 -12 70 -34q11 -6 29.5 -17.5t24.5 -14.5q25 -15 52 -15q55 0 55 88h172q0 -130 -52 -206q-53 -77 -165 -77q-59 0 -99 18q-39 17 -73 39q-21 15 -46 27q-20 10 -48 10q-29 0 -42 -19t-13 -67h-168z" />
<glyph unicode="&#xd6;" horiz-adv-x="1718" d="M94 748q0 160 60 299q60 140 162 243q104 105 243 165q142 61 299 61t300 -61q140 -60 244 -165q106 -107 164 -243q60 -140 60 -299q0 -162 -59 -299q-60 -140 -164 -244q-106 -106 -245 -165q-141 -60 -300 -60q-160 0 -299 60t-243 165q-101 103 -162 244 q-60 139 -60 299zM385 748q0 -98 36 -187q36 -88 99 -154q65 -68 151 -105q88 -38 187 -38q102 0 190 38q84 36 151 105q64 65 100 154t36 187q0 101 -37 188q-38 89 -100 154t-151 104t-189 39t-187 -39q-90 -41 -151 -104q-63 -66 -99 -154t-36 -188zM465 1780 q0 72 43 116q44 46 115 46q70 0 116 -46q45 -45 45 -116q0 -72 -45 -116q-46 -44 -116 -44q-71 0 -115 44q-43 43 -43 116zM924 1780q0 71 45 116q46 46 114 46q71 0 117 -46q45 -45 45 -116q0 -72 -45 -116q-46 -44 -117 -44t-115 44t-44 116z" />
<glyph unicode="&#xd7;" horiz-adv-x="978" d="M109 961l165 163l213 -215l218 217l165 -168l-215 -215l213 -213l-166 -163l-213 211l-213 -213l-165 167l213 213z" />
<glyph unicode="&#xd8;" horiz-adv-x="1718" d="M94 748q0 160 60 299q60 140 162 243q104 105 243 165q142 61 299 61q118 0 223 -34q113 -37 199 -93l164 200l125 -94l-168 -205q106 -106 165 -243q60 -140 60 -299q0 -162 -59 -299q-60 -140 -164 -244q-106 -106 -245 -165q-141 -60 -300 -60q-123 0 -225 33 q-113 37 -199 93l-166 -202l-123 94l170 209q-102 102 -162 243q-59 139 -59 298zM385 748q0 -94 30 -173q29 -77 83 -145l602 737q-51 29 -115 48q-62 18 -127 18q-100 0 -187 -39q-90 -41 -151 -104q-63 -66 -99 -154t-36 -188zM616 330q51 -29 114 -48q60 -18 128 -18 q102 0 190 38q84 36 151 105q64 65 100 154t36 187q0 93 -31 173q-30 77 -85 146z" />
<glyph unicode="&#xd9;" horiz-adv-x="1435" d="M127 575v920h295v-926q0 -139 81 -225t214 -86q132 0 215 86q82 85 82 225v926h295v-920q0 -139 -43 -249q-44 -113 -121 -188q-79 -78 -187 -118q-107 -40 -241 -40q-135 0 -242 40q-106 40 -186 118q-78 76 -120 188q-42 111 -42 249zM371 1948h288l234 -351h-211z" />
<glyph unicode="&#xda;" horiz-adv-x="1435" d="M127 575v920h295v-926q0 -139 81 -225t214 -86q132 0 215 86q82 85 82 225v926h295v-920q0 -139 -43 -249q-44 -113 -121 -188q-79 -78 -187 -118q-107 -40 -241 -40q-135 0 -242 40q-106 40 -186 118q-78 76 -120 188q-42 111 -42 249zM586 1597l233 351h289l-309 -351 h-213z" />
<glyph unicode="&#xdb;" horiz-adv-x="1435" d="M127 575v920h295v-926q0 -139 81 -225t214 -86q132 0 215 86q82 85 82 225v926h295v-920q0 -139 -43 -249q-44 -113 -121 -188q-79 -78 -187 -118q-107 -40 -241 -40q-135 0 -242 40q-106 40 -186 118q-78 76 -120 188q-42 111 -42 249zM381 1599l244 353h190l244 -353 h-225l-117 177l-113 -177h-223z" />
<glyph unicode="&#xdc;" horiz-adv-x="1435" d="M127 575v920h295v-926q0 -139 81 -225t214 -86q132 0 215 86q82 85 82 225v926h295v-920q0 -139 -43 -249q-44 -113 -121 -188q-79 -78 -187 -118q-107 -40 -241 -40q-135 0 -242 40q-106 40 -186 118q-78 76 -120 188q-42 111 -42 249zM326 1747q0 73 43 117 q43 45 114 45q72 0 117 -45t45 -117q0 -73 -45 -116q-46 -44 -117 -44q-70 0 -114 44q-43 43 -43 116zM784 1747q0 72 45 117t115 45q72 0 117 -45t45 -117q0 -73 -45 -116q-46 -44 -117 -44q-72 0 -116 44t-44 116z" />
<glyph unicode="&#xdd;" horiz-adv-x="1378" d="M35 1495h317l338 -594l338 594h315l-509 -870v-625h-291v631zM555 1599l233 351h289l-309 -351h-213z" />
<glyph unicode="&#xde;" horiz-adv-x="1263" d="M131 0v1495h291v-260h258q112 0 202 -37q91 -38 155 -101q65 -65 101 -151t36 -184t-36 -184t-101 -151q-64 -63 -155 -101q-90 -37 -202 -37h-258v-289h-291zM422 555h246q98 0 156 57q59 57 59 150q0 90 -59 147q-60 58 -156 58h-246v-412z" />
<glyph unicode="&#xdf;" horiz-adv-x="1232" d="M-90 -246q70 0 112 9t63 33q22 25 29 65q7 38 7 102v1172q-1 107 30 195q32 89 95 154q62 64 156 100q93 36 212 36q110 0 198 -33q92 -34 154 -92q65 -60 99 -142q35 -84 35 -182q0 -110 -52 -195q-51 -83 -145 -134q116 -46 187 -143q69 -95 69 -228q0 -107 -36 -197 q-36 -91 -103 -156q-68 -66 -163 -104q-93 -37 -214 -37q-19 0 -75 6q-41 4 -68 15v256q5 -4 25 -7q25 -4 41 -5l42 -3q14 -1 33 -1q98 0 160 65q63 66 63 166q0 98 -72 164q-71 65 -198 65h-53v258h49q105 0 168 60t63 155q0 88 -56 147q-57 60 -155 60q-96 0 -154 -55 q-59 -56 -59 -164v-1196q0 -133 -21 -223q-21 -89 -73 -146q-50 -55 -137 -79q-89 -25 -217 -25h-39v264z" />
<glyph unicode="&#xe0;" horiz-adv-x="1241" d="M72 307q0 174 133 273q132 98 364 98h291v14q0 91 -59 146t-180 55q-94 0 -158 -38t-103 -107l-260 129q83 110 210 181q125 70 313 70q245 0 378 -118q134 -119 134 -330v-680h-273v170q-62 -88 -167 -139q-111 -54 -238 -54q-181 0 -284 92q-101 91 -101 238zM279 1593 h288l234 -350h-211zM367 332q0 -121 172 -121q54 0 100 14q51 15 92 41q42 26 77 64q32 35 54 82v59h-260q-128 0 -181 -37q-54 -38 -54 -102z" />
<glyph unicode="&#xe1;" horiz-adv-x="1241" d="M72 307q0 174 133 273q132 98 364 98h291v14q0 91 -59 146t-180 55q-94 0 -158 -38t-103 -107l-260 129q83 110 210 181q125 70 313 70q245 0 378 -118q134 -119 134 -330v-680h-273v170q-62 -88 -167 -139q-111 -54 -238 -54q-181 0 -284 92q-101 91 -101 238zM367 332 q0 -121 172 -121q54 0 100 14q51 15 92 41q42 26 77 64q32 35 54 82v59h-260q-128 0 -181 -37q-54 -38 -54 -102zM494 1243l233 350h289l-309 -350h-213z" />
<glyph unicode="&#xe2;" horiz-adv-x="1241" d="M72 307q0 174 133 273q132 98 364 98h291v14q0 91 -59 146t-180 55q-94 0 -158 -38t-103 -107l-260 129q83 110 210 181q125 70 313 70q245 0 378 -118q134 -119 134 -330v-680h-273v170q-62 -88 -167 -139q-111 -54 -238 -54q-181 0 -284 92q-101 91 -101 238zM289 1245 l243 352h191l244 -352h-226l-116 176l-113 -176h-223zM367 332q0 -121 172 -121q54 0 100 14q51 15 92 41q42 26 77 64q32 35 54 82v59h-260q-128 0 -181 -37q-54 -38 -54 -102z" />
<glyph unicode="&#xe3;" horiz-adv-x="1241" d="M72 307q0 174 133 273q132 98 364 98h291v14q0 91 -59 146t-180 55q-94 0 -158 -38t-103 -107l-260 129q83 110 210 181q125 70 313 70q245 0 378 -118q134 -119 134 -330v-680h-273v170q-62 -88 -167 -139q-111 -54 -238 -54q-181 0 -284 92q-101 91 -101 238zM272 1245 q0 135 57 209t158 74q48 0 88 -16q36 -14 70 -33q11 -6 29.5 -17.5t24.5 -14.5q26 -15 53 -15q55 0 55 88h172q0 -130 -52 -206q-53 -77 -165 -77q-58 0 -99 18q-39 17 -73 39q-21 15 -46 27q-20 10 -48 10q-29 0 -42 -19q-14 -20 -14 -67h-168zM367 332q0 -121 172 -121 q54 0 100 14q51 15 92 41q42 26 77 64q32 35 54 82v59h-260q-128 0 -181 -37q-54 -38 -54 -102z" />
<glyph unicode="&#xe4;" horiz-adv-x="1241" d="M72 307q0 174 133 273q132 98 364 98h291v14q0 91 -59 146t-180 55q-94 0 -158 -38t-103 -107l-260 129q83 110 210 181q125 70 313 70q245 0 378 -118q134 -119 134 -330v-680h-273v170q-62 -88 -167 -139q-111 -54 -238 -54q-181 0 -284 92q-101 91 -101 238zM233 1389 q0 72 43 116q43 45 115 45t117 -45t45 -116q0 -73 -45 -116q-46 -44 -117 -44t-115 44q-43 43 -43 116zM367 332q0 -121 172 -121q54 0 100 14q51 15 92 41q42 26 77 64q32 35 54 82v59h-260q-128 0 -181 -37q-54 -38 -54 -102zM692 1389q0 71 45 116t115 45q72 0 117 -45 t45 -116q0 -73 -45 -116q-46 -44 -117 -44q-72 0 -116 44t-44 116z" />
<glyph unicode="&#xe5;" horiz-adv-x="1241" d="M72 307q0 174 133 273q132 98 364 98h291v14q0 91 -59 146t-180 55q-94 0 -158 -38t-103 -107l-260 129q83 110 210 181q125 70 313 70q245 0 378 -118q134 -119 134 -330v-680h-273v170q-62 -88 -167 -139q-111 -54 -238 -54q-181 0 -284 92q-101 91 -101 238zM367 332 q0 -121 172 -121q54 0 100 14q51 15 92 41q42 26 77 64q32 35 54 82v59h-260q-128 0 -181 -37q-54 -38 -54 -102zM397 1477q0 46 19 92q18 43 50 75t74 50t89 18q49 0 92 -18t75 -50t50 -75q18 -44 18 -92q0 -50 -18 -92q-18 -41 -50 -72q-33 -32 -75 -49q-46 -19 -92 -19 q-45 0 -89 19q-41 18 -74 49q-32 31 -50 72q-19 44 -19 92zM543 1475q0 -36 25 -61t61 -25q38 0 64 26q28 28 28 62q0 35 -28 63q-27 27 -64 27q-35 0 -61 -28q-25 -26 -25 -64z" />
<glyph unicode="&#xe6;" horiz-adv-x="2064" d="M66 307q0 89 34 156t99 115q64 47 154 71q95 25 206 25h295v31q0 82 -58 136t-175 54q-97 0 -158 -41q-60 -41 -90 -106l-269 116q39 60 87 106q49 47 114 83q60 33 144 55q76 20 176 20q141 0 241 -44t156 -121q78 78 181 121q105 44 227 44q126 0 230 -43 q106 -44 181 -119t118 -181q42 -104 42 -226v-102h-879q24 -109 106 -173q81 -63 208 -63q93 0 163 41q69 41 113 113l234 -127q-85 -124 -207 -197q-124 -74 -307 -74q-157 0 -281 61q-121 60 -195 165q-73 -103 -199 -164q-129 -62 -290 -62q-187 0 -295 90 q-106 88 -106 240zM360 332q0 -57 43 -90t129 -33q56 0 107 16q54 17 97 45q44 28 78 69q32 38 48 87q0 8 -1 13t-1 18h-276q-118 0 -170 -30q-54 -31 -54 -95zM1130 674h588q-29 105 -103 159q-75 54 -185 54q-108 0 -188 -59q-79 -58 -112 -154z" />
<glyph unicode="&#xe7;" horiz-adv-x="1255" d="M76 553q0 121 44 227q44 105 123 183q79 77 184 121q106 44 228 44q99 0 181 -25t152 -72t121 -110t85 -143l-260 -104q-35 90 -107 140q-73 50 -168 50q-63 0 -118 -24q-56 -24 -97 -67q-40 -41 -64 -99q-24 -57 -24 -121q0 -63 24 -119t65 -97q43 -43 98 -67t119 -24 q97 0 168 53t106 139l264 -108q-67 -143 -182 -236q-116 -94 -287 -112v-99q107 0 169 -49q63 -50 63 -129q0 -47 -25 -91q-25 -43 -68 -73q-45 -31 -102 -48t-129 -17q-96 0 -171 31q-73 30 -136 85l166 111q34 -28 70 -46q34 -17 89 -17q46 0 75 16q30 16 30 43 q0 53 -111 53h-106v236q-103 18 -189 68q-84 48 -148 125q-62 74 -97 170t-35 202z" />
<glyph unicode="&#xe8;" horiz-adv-x="1302" d="M76 551q0 120 44 226t122 184q77 77 184 122q106 45 229 45q126 0 230 -43q105 -44 180 -117t119 -180q43 -104 43 -227v-106h-879q28 -107 112 -171q82 -63 206 -63q98 0 165 40q69 41 109 108l231 -136q-85 -118 -204 -186q-123 -70 -305 -70q-130 0 -242 45 q-111 45 -186 121q-76 78 -117 183q-41 106 -41 225zM305 1593h289l233 -350h-211zM356 676h590q-29 106 -104 159q-76 54 -187 54q-107 0 -186 -58t-113 -155z" />
<glyph unicode="&#xe9;" horiz-adv-x="1302" d="M76 551q0 120 44 226t122 184q77 77 184 122q106 45 229 45q126 0 230 -43q105 -44 180 -117t119 -180q43 -104 43 -227v-106h-879q28 -107 112 -171q82 -63 206 -63q98 0 165 40q69 41 109 108l231 -136q-85 -118 -204 -186q-123 -70 -305 -70q-130 0 -242 45 q-111 45 -186 121q-76 78 -117 183q-41 106 -41 225zM356 676h590q-29 106 -104 159q-76 54 -187 54q-107 0 -186 -58t-113 -155zM520 1243l234 350h288l-309 -350h-213z" />
<glyph unicode="&#xea;" horiz-adv-x="1302" d="M76 551q0 120 44 226t122 184q77 77 184 122q106 45 229 45q126 0 230 -43q105 -44 180 -117t119 -180q43 -104 43 -227v-106h-879q28 -107 112 -171q82 -63 206 -63q98 0 165 40q69 41 109 108l231 -136q-85 -118 -204 -186q-123 -70 -305 -70q-130 0 -242 45 q-111 45 -186 121q-76 78 -117 183q-41 106 -41 225zM315 1245l244 352h191l243 -352h-225l-117 176l-112 -176h-224zM356 676h590q-29 106 -104 159q-76 54 -187 54q-107 0 -186 -58t-113 -155z" />
<glyph unicode="&#xeb;" horiz-adv-x="1302" d="M76 551q0 120 44 226t122 184q77 77 184 122q106 45 229 45q126 0 230 -43q105 -44 180 -117t119 -180q43 -104 43 -227v-106h-879q28 -107 112 -171q82 -63 206 -63q98 0 165 40q69 41 109 108l231 -136q-85 -118 -204 -186q-123 -70 -305 -70q-130 0 -242 45 q-111 45 -186 121q-76 78 -117 183q-41 106 -41 225zM260 1376q0 73 43 117q44 45 115 45q72 0 117 -45t45 -117t-45 -115q-46 -44 -117 -44t-115 44q-43 43 -43 115zM356 676h590q-29 106 -104 159q-76 54 -187 54q-107 0 -186 -58t-113 -155zM719 1376q0 72 45 117t115 45 q71 0 116 -45t45 -117t-45 -115q-46 -44 -116 -44q-72 0 -116 44t-44 115z" />
<glyph unicode="&#xec;" horiz-adv-x="509" d="M-129 1581h289l233 -350h-211zM111 0v1106h288v-1106h-288z" />
<glyph unicode="&#xed;" horiz-adv-x="509" d="M111 0v1106h288v-1106h-288zM147 1241l234 350h289l-310 -350h-213z" />
<glyph unicode="&#xee;" horiz-adv-x="509" d="M-86 1233l244 352h190l244 -352h-225l-117 176l-113 -176h-223zM111 0v1106h288v-1106h-288z" />
<glyph unicode="&#xef;" horiz-adv-x="509" d="M-141 1380q0 73 43 117q43 45 114 45q72 0 117 -45t45 -117t-45 -115q-46 -44 -117 -44q-70 0 -114 44q-43 43 -43 115zM111 0v1106h288v-1106h-288zM317 1380q0 72 45 117t115 45q72 0 117 -45t45 -117t-45 -115q-46 -44 -117 -44q-72 0 -116 44t-44 115z" />
<glyph unicode="&#xf0;" horiz-adv-x="1308" d="M80 543q0 121 42 220q41 97 115 171q70 70 170 110q97 39 207 39q70 0 124 -15q55 -15 98 -42q-35 51 -93 120q-57 67 -118 124l-168 -127l-95 108l154 117q-72 62 -151 120q-74 54 -179 126h396q33 -27 63 -51q33 -26 60 -52l153 119l100 -108l-145 -111 q219 -219 315 -432q97 -215 97 -414q0 -125 -44 -233q-43 -105 -121 -186q-75 -77 -182 -122q-106 -44 -229 -44q-117 0 -220 42q-104 42 -181 116q-78 75 -123 178q-45 104 -45 227zM358 543q0 -64 24 -118q26 -58 63 -95q41 -41 95 -65q52 -23 113 -23q63 0 115 24 q50 23 93 66q40 40 63 95q22 53 22 116q0 62 -22 116q-23 56 -62 97q-38 39 -92 64q-52 24 -115 24q-60 0 -114 -23q-56 -24 -95 -63q-40 -40 -64 -96t-24 -119z" />
<glyph unicode="&#xf1;" d="M111 0v1106h282v-139q50 73 136 118q82 43 188 43q197 0 312 -121q116 -122 116 -339v-668h-289v625q0 119 -56 187q-57 69 -169 69q-100 0 -168 -71t-68 -200v-610h-284zM293 1241q0 137 56 209q57 74 159 74q48 0 88 -16q36 -14 70 -33q11 -6 29.5 -17.5t24.5 -14.5 q27 -16 52 -16q55 0 55 89h172q0 -130 -52 -206q-53 -77 -165 -77q-58 0 -99 18q-39 17 -73 39q-21 15 -46 27q-20 10 -48 10q-29 0 -42 -19t-13 -67h-168z" />
<glyph unicode="&#xf2;" horiz-adv-x="1320" d="M76 553q0 118 44 224q44 107 123 184q78 77 185 122q106 45 231 45q123 0 231 -45q107 -45 186 -122q78 -76 124 -184q45 -105 45 -224q0 -118 -45 -223q-45 -104 -123 -184q-76 -78 -185 -123q-110 -46 -233 -46q-122 0 -231 46q-107 45 -185 123q-80 80 -123 184 q-44 106 -44 223zM285 1593h288l234 -350h-211zM358 555q0 -65 24 -122t64 -97q42 -42 97 -66t119 -24q62 0 118 24q55 24 97 66q40 40 64 97t24 122q0 64 -24 121q-25 59 -64 98q-42 42 -97 66q-56 24 -118 24q-64 0 -119 -24t-97 -66q-39 -39 -64 -98q-24 -57 -24 -121z " />
<glyph unicode="&#xf3;" horiz-adv-x="1320" d="M76 553q0 118 44 224q44 107 123 184q78 77 185 122q106 45 231 45q123 0 231 -45q107 -45 186 -122q78 -76 124 -184q45 -105 45 -224q0 -118 -45 -223q-45 -104 -123 -184q-76 -78 -185 -123q-110 -46 -233 -46q-122 0 -231 46q-107 45 -185 123q-80 80 -123 184 q-44 106 -44 223zM358 555q0 -65 24 -122t64 -97q42 -42 97 -66t119 -24q62 0 118 24q55 24 97 66q40 40 64 97t24 122q0 64 -24 121q-25 59 -64 98q-42 42 -97 66q-56 24 -118 24q-64 0 -119 -24t-97 -66q-39 -39 -64 -98q-24 -57 -24 -121zM524 1243l234 350h289 l-310 -350h-213z" />
<glyph unicode="&#xf4;" horiz-adv-x="1320" d="M76 553q0 118 44 224q44 107 123 184q78 77 185 122q106 45 231 45q123 0 231 -45q107 -45 186 -122q78 -76 124 -184q45 -105 45 -224q0 -118 -45 -223q-45 -104 -123 -184q-76 -78 -185 -123q-110 -46 -233 -46q-122 0 -231 46q-107 45 -185 123q-80 80 -123 184 q-44 106 -44 223zM319 1245l244 352h191l243 -352h-225l-117 176l-112 -176h-224zM358 555q0 -65 24 -122t64 -97q42 -42 97 -66t119 -24q62 0 118 24q55 24 97 66q40 40 64 97t24 122q0 64 -24 121q-25 59 -64 98q-42 42 -97 66q-56 24 -118 24q-64 0 -119 -24t-97 -66 q-39 -39 -64 -98q-24 -57 -24 -121z" />
<glyph unicode="&#xf5;" horiz-adv-x="1320" d="M76 553q0 118 44 224q44 107 123 184q78 77 185 122q106 45 231 45q123 0 231 -45q107 -45 186 -122q78 -76 124 -184q45 -105 45 -224q0 -118 -45 -223q-45 -104 -123 -184q-76 -78 -185 -123q-110 -46 -233 -46q-122 0 -231 46q-107 45 -185 123q-80 80 -123 184 q-44 106 -44 223zM311 1245q0 135 57 209t158 74q48 0 88 -16q36 -14 70 -33q11 -6 29.5 -17.5t24.5 -14.5q25 -15 53 -15q55 0 55 88h172q0 -130 -52 -206q-53 -77 -165 -77q-59 0 -100 18q-36 16 -72 39q-21 15 -46 27q-20 10 -48 10q-29 0 -42 -19q-14 -20 -14 -67h-168z M358 555q0 -65 24 -122t64 -97q42 -42 97 -66t119 -24q62 0 118 24q55 24 97 66q40 40 64 97t24 122q0 64 -24 121q-25 59 -64 98q-42 42 -97 66q-56 24 -118 24q-64 0 -119 -24t-97 -66q-39 -39 -64 -98q-24 -57 -24 -121z" />
<glyph unicode="&#xf6;" horiz-adv-x="1320" d="M76 553q0 118 44 224q44 107 123 184q78 77 185 122q106 45 231 45q123 0 231 -45q107 -45 186 -122q78 -76 124 -184q45 -105 45 -224q0 -118 -45 -223q-45 -104 -123 -184q-76 -78 -185 -123q-110 -46 -233 -46q-122 0 -231 46q-107 45 -185 123q-80 80 -123 184 q-44 106 -44 223zM264 1382q0 73 43 117q43 45 115 45t117 -45t45 -117t-45 -115q-46 -44 -117 -44t-115 44q-43 43 -43 115zM358 555q0 -65 24 -122t64 -97q42 -42 97 -66t119 -24q62 0 118 24q55 24 97 66q40 40 64 97t24 122q0 64 -24 121q-25 59 -64 98q-42 42 -97 66 q-56 24 -118 24q-64 0 -119 -24t-97 -66q-39 -39 -64 -98q-24 -57 -24 -121zM723 1382q0 72 45 117t115 45q71 0 116 -45t45 -117t-45 -115q-46 -44 -116 -44q-72 0 -116 44t-44 115z" />
<glyph unicode="&#xf7;" horiz-adv-x="976" d="M102 627v241h772v-241h-772zM344 412q0 62 42 100q41 37 101 37q64 0 107 -37t43 -100q0 -62 -43 -98q-42 -35 -107 -35q-63 0 -102 35q-41 36 -41 98zM344 1079q0 63 42 101q41 37 101 37q64 0 107 -37t43 -101q0 -61 -43 -97q-44 -36 -107 -36q-61 0 -102 36t-41 97z " />
<glyph unicode="&#xf8;" horiz-adv-x="1320" d="M78 553q0 119 44 225q43 104 122 183q77 77 184 122q106 45 231 45q87 0 163 -21q77 -21 143 -60l110 133l121 -95l-111 -135q76 -78 118 -179q42 -102 42 -218q0 -120 -45 -225t-123 -183q-77 -77 -185 -122q-110 -46 -233 -46q-85 0 -160 21q-78 22 -141 59l-116 -143 l-123 98l117 142q-74 79 -116 180q-42 102 -42 219zM358 555q0 -50 15 -97q16 -48 41 -85l379 463q-27 14 -63 22q-37 8 -68 8q-64 0 -119 -24q-56 -24 -97 -67q-40 -41 -64 -99q-24 -57 -24 -121zM532 272q60 -28 129 -28q63 0 119 24t97 67q40 42 64 98q24 57 24 122 q0 99 -56 178z" />
<glyph unicode="&#xf9;" d="M109 442v664h288v-625q0 -116 56 -184t170 -68q98 0 165 70q66 69 66 199v608l287 2v-1106l-283 -2v139q-51 -75 -135 -119q-82 -43 -184 -43q-205 0 -318 123q-112 122 -112 342zM274 1559h289l234 -351h-211z" />
<glyph unicode="&#xfa;" d="M109 442v664h288v-625q0 -116 56 -184t170 -68q98 0 165 70q66 69 66 199v608l287 2v-1106l-283 -2v139q-51 -75 -135 -119q-82 -43 -184 -43q-205 0 -318 123q-112 122 -112 342zM487 1208l234 351h289l-310 -351h-213z" />
<glyph unicode="&#xfb;" d="M109 442v664h288v-625q0 -116 56 -184t170 -68q98 0 165 70q66 69 66 199v608l287 2v-1106l-283 -2v139q-51 -75 -135 -119q-82 -43 -184 -43q-205 0 -318 123q-112 122 -112 342zM285 1210l243 353h191l244 -353h-226l-116 176l-113 -176h-223z" />
<glyph unicode="&#xfc;" d="M109 442v664h288v-625q0 -116 56 -184t170 -68q98 0 165 70q66 69 66 199v608l287 2v-1106l-283 -2v139q-51 -75 -135 -119q-82 -43 -184 -43q-205 0 -318 123q-112 122 -112 342zM229 1358q0 73 43 117q44 45 115 45q72 0 117 -45t45 -117t-45 -116q-46 -44 -117 -44 t-115 44q-43 43 -43 116zM688 1358q0 72 45 117t115 45q72 0 117 -45t45 -117t-45 -116q-46 -44 -117 -44q-72 0 -116 44t-44 116z" />
<glyph unicode="&#xfd;" horiz-adv-x="1214" d="M-72 -336l164 230q32 -34 66 -50q38 -18 84 -18q76 0 126 39q52 41 91 137l18 45l-444 1059h301l287 -713l272 713h295l-477 -1165q-46 -113 -88 -180q-45 -72 -101 -116q-58 -45 -123 -64q-66 -19 -155 -19q-90 0 -171 28q-83 29 -145 74zM492 1214l233 351h289 l-309 -351h-213z" />
<glyph unicode="&#xfe;" horiz-adv-x="1339" d="M111 -508v2122h280v-662q51 81 143 129q89 47 205 47q109 0 200 -39q98 -42 168 -115q73 -76 116 -180t43 -237q0 -132 -44 -241q-42 -104 -116 -183q-70 -74 -167 -116q-93 -40 -196 -40q-113 0 -206 48q-90 47 -146 131v-664h-280zM381 555q0 -67 23 -122t64 -99 q42 -45 95 -68q55 -24 121 -24t121 24t96 68q43 46 64 100q22 56 22 123q0 66 -22 122q-22 55 -63 98q-43 45 -96 67q-57 24 -122 24q-66 0 -121 -24q-54 -23 -96 -67t-64 -99q-22 -56 -22 -123z" />
<glyph unicode="&#xff;" horiz-adv-x="1214" d="M-72 -336l164 230q32 -34 66 -50q38 -18 84 -18q76 0 126 39q52 41 91 137l18 45l-444 1059h301l287 -713l272 713h295l-477 -1165q-46 -113 -88 -180q-45 -72 -101 -116q-58 -45 -123 -64q-66 -19 -155 -19q-90 0 -171 28q-83 29 -145 74zM221 1364q0 73 43 117 q44 45 115 45q72 0 117 -45t45 -117t-45 -116q-46 -44 -117 -44t-115 44q-43 43 -43 116zM680 1364q0 72 45 117t115 45q71 0 116 -45t45 -117t-45 -116q-46 -44 -116 -44q-72 0 -116 44t-44 116z" />
<glyph unicode="&#x152;" horiz-adv-x="2390" d="M94 748q0 160 60 299q60 140 162 243q104 105 243 165q142 61 299 61q147 0 270 -53q121 -52 211 -144v176h934v-272h-645v-336h645v-273h-645v-340h645v-274h-934v174q-91 -93 -211 -143q-122 -51 -270 -51q-160 0 -299 60t-243 165q-101 103 -162 244q-60 139 -60 299z M385 748q0 -98 36 -187q35 -86 99 -153q63 -66 151 -104t187 -38t189 38q87 37 151 104q63 66 100 153t37 187q0 101 -37 188q-38 89 -101 154t-151 104q-87 39 -188 39q-100 0 -186 -39q-90 -41 -150 -104q-62 -65 -100 -154q-37 -87 -37 -188z" />
<glyph unicode="&#x153;" horiz-adv-x="2183" d="M78 553q0 119 44 225q43 104 122 183q76 76 183 122q105 45 228 45q142 0 251 -56q113 -58 188 -152q72 97 186 153q111 55 254 55q125 0 229 -43q108 -45 181 -118q74 -74 117 -181q42 -105 42 -227v-100h-876q24 -111 106 -175q83 -65 207 -65q97 0 165 40 q69 40 112 112l233 -127q-86 -123 -210 -195t-304 -72q-147 0 -262 56q-117 57 -187 149q-73 -93 -184 -149q-112 -56 -248 -56q-121 0 -228 46t-183 122q-79 79 -122 183q-44 106 -44 225zM356 553q0 -65 24 -122q25 -59 63 -97q43 -43 95 -66q54 -24 117 -24q61 0 117 24 q51 22 95 66q40 40 64 97q23 55 23 122t-23 122q-24 56 -64 98q-43 44 -95 67q-56 24 -117 24q-63 0 -117 -24q-53 -24 -95 -67q-39 -40 -63 -98q-24 -57 -24 -122zM1235 676h590q-28 104 -104 160q-74 55 -185 55q-110 0 -189 -58t-112 -157z" />
<glyph unicode="&#x178;" horiz-adv-x="1378" d="M35 1495h317l338 -594l338 594h315l-509 -870v-625h-291v631zM297 1749q0 73 43 117q43 45 115 45q71 0 116 -45t45 -117q0 -73 -45 -116q-46 -44 -116 -44q-71 0 -115 44q-43 43 -43 116zM756 1749q0 72 45 117t114 45q72 0 117 -45t45 -117q0 -73 -45 -116 q-46 -44 -117 -44t-115 44t-44 116z" />
<glyph unicode="&#x2c6;" horiz-adv-x="1040" d="M182 1233l244 352h190l244 -352h-225l-117 176l-112 -176h-224z" />
<glyph unicode="&#x2dc;" horiz-adv-x="1040" d="M162 1233q0 137 56 209q57 74 159 74q48 0 88 -16q29 -12 70 -34q8 -4 26.5 -14.5t27.5 -16.5q27 -16 52 -16q55 0 55 88h172q0 -129 -52 -205q-53 -77 -165 -77q-59 0 -99 18q-39 17 -73 39q-21 15 -46 27q-20 10 -48 10t-42 -20q-13 -19 -13 -66h-168z" />
<glyph unicode="&#x2000;" horiz-adv-x="992" />
<glyph unicode="&#x2001;" horiz-adv-x="1985" />
<glyph unicode="&#x2002;" horiz-adv-x="992" />
<glyph unicode="&#x2003;" horiz-adv-x="1985" />
<glyph unicode="&#x2004;" horiz-adv-x="661" />
<glyph unicode="&#x2005;" horiz-adv-x="496" />
<glyph unicode="&#x2006;" horiz-adv-x="330" />
<glyph unicode="&#x2007;" horiz-adv-x="330" />
<glyph unicode="&#x2008;" horiz-adv-x="248" />
<glyph unicode="&#x2009;" horiz-adv-x="397" />
<glyph unicode="&#x200a;" horiz-adv-x="110" />
<glyph unicode="&#x2010;" horiz-adv-x="972" d="M109 397v244h757v-244h-757z" />
<glyph unicode="&#x2011;" horiz-adv-x="972" d="M109 397v244h757v-244h-757z" />
<glyph unicode="&#x2012;" horiz-adv-x="972" d="M109 397v244h757v-244h-757z" />
<glyph unicode="&#x2013;" horiz-adv-x="1042" d="M109 397v244h827v-244h-827z" />
<glyph unicode="&#x2014;" horiz-adv-x="1452" d="M109 397v244h1237v-244h-1237z" />
<glyph unicode="&#x2018;" horiz-adv-x="559" d="M80 1110q0 122 70 222q67 97 184 181l90 -92q-92 -69 -138 -132q-48 -65 -55 -130q29 60 99 60q62 0 103 -44q40 -43 40 -110q0 -82 -52 -133q-53 -51 -136 -51q-99 0 -152 66q-53 67 -53 163z" />
<glyph unicode="&#x2019;" horiz-adv-x="559" d="M88 1327q0 85 52 134q53 50 134 50q102 0 154 -65q53 -67 53 -162q0 -124 -69 -223q-65 -94 -185 -182l-90 94q91 67 135 127q46 62 56 129q-29 -53 -97 -53q-63 0 -103 43t-40 108z" />
<glyph unicode="&#x201a;" horiz-adv-x="559" d="M84 147q0 83 52 134t136 51q99 0 152 -67t53 -163q0 -124 -69 -223q-65 -94 -185 -182l-90 94q94 71 139 132q48 65 54 132q-27 -61 -99 -61q-62 0 -103 44q-40 43 -40 109z" />
<glyph unicode="&#x201c;" horiz-adv-x="1015" d="M84 1110q0 122 70 222q67 97 184 181l90 -92q-96 -71 -144 -141q-47 -68 -48 -143q22 65 96 65q59 0 97 -41t38 -102q0 -77 -47 -127q-46 -49 -129 -49q-102 0 -154 65q-53 67 -53 162zM551 1110q0 122 70 222q67 97 184 181l90 -92q-96 -71 -144 -141q-48 -69 -49 -143 q22 65 97 65q59 0 97 -41t38 -102q0 -77 -47 -127q-46 -49 -129 -49q-102 0 -154 65q-53 67 -53 162z" />
<glyph unicode="&#x201d;" horiz-adv-x="1015" d="M88 1335q0 77 47 127q46 49 129 49q102 0 154 -65q53 -67 53 -162q0 -122 -70 -222q-67 -97 -184 -181l-90 92q97 72 143 141q44 67 49 141q-23 -63 -96 -63q-59 0 -97 41t-38 102zM555 1335q0 77 47 127q46 49 129 49q102 0 154 -65q53 -67 53 -162q0 -122 -70 -222 q-67 -97 -184 -181l-90 92q97 72 143 141q44 67 49 141q-22 -63 -96 -63q-59 0 -97 41t-38 102z" />
<glyph unicode="&#x201e;" horiz-adv-x="1015" d="M88 154q0 78 47 128t129 50q102 0 154 -66q53 -67 53 -162q0 -124 -70 -224q-67 -97 -184 -181l-90 92q97 72 143 141q44 67 49 142q-23 -64 -96 -64q-59 0 -97 42q-38 43 -38 102zM555 154q0 78 47 128t129 50q101 0 154 -66q53 -67 53 -162q0 -124 -70 -224 q-67 -97 -184 -181l-90 92q97 72 143 141q44 67 49 142q-23 -64 -96 -64q-60 0 -97 42q-38 43 -38 102z" />
<glyph unicode="&#x2022;" horiz-adv-x="825" d="M182 522q0 45 19 89q18 42 50 74t74 50q44 19 89 19t89 -19q42 -18 74 -50t50 -74t18 -89t-18 -89t-50 -74t-74 -50t-89 -18t-89 18t-74 50t-50 74q-19 44 -19 89z" />
<glyph unicode="&#x2026;" horiz-adv-x="1404" d="M88 152q0 78 48 126t126 48t126 -48t48 -126t-48 -127q-48 -50 -126 -50t-126 50q-48 49 -48 127zM528 152q0 77 49 126q48 48 125 48q78 0 126 -48q49 -49 49 -126q0 -76 -49 -127q-48 -50 -126 -50q-77 0 -125 50q-49 51 -49 127zM969 152q0 78 48 126t126 48t126 -48 t48 -126t-48 -127q-48 -50 -126 -50t-126 50q-48 49 -48 127z" />
<glyph unicode="&#x202f;" horiz-adv-x="397" />
<glyph unicode="&#x2039;" horiz-adv-x="626" d="M135 436v170l359 238v-203l-189 -121l189 -119v-202z" />
<glyph unicode="&#x203a;" horiz-adv-x="626" d="M135 199v204l189 119l-189 121v203l359 -240v-168z" />
<glyph unicode="&#x205f;" horiz-adv-x="496" />
<glyph unicode="&#x20ac;" horiz-adv-x="1748" d="M94 442v220h129q-4 20 -4 43v43q0 30 1 45l3 45h-129v221h187q45 104 113 186q72 86 162 145q92 60 201 93q110 33 232 33q210 0 378 -96q164 -94 267 -253l-231 -153q-57 108 -166 170q-107 61 -250 61q-125 0 -225 -50q-98 -49 -162 -136h606l-59 -221h-631 q-7 -25 -8 -45q-2 -30 -2 -45q0 -49 8 -86h586l-60 -220h-442q61 -88 160 -139t227 -51q157 0 261 72q105 73 161 194l252 -131q-51 -94 -115 -167q-68 -77 -149 -128q-86 -53 -186 -83q-99 -29 -218 -29q-129 0 -235 33q-112 35 -203 96q-97 65 -162 146q-68 85 -112 187 h-185z" />
<glyph unicode="&#x2122;" horiz-adv-x="1411" d="M92 1311v184h490v-184h-144v-410h-198v410h-148zM639 901v594h195l141 -184l153 184h175v-594h-197v297l-137 -156l-135 154v-295h-195z" />
<glyph unicode="&#x25fc;" horiz-adv-x="1105" d="M0 0v1106h1106v-1106h-1106z" />
<glyph unicode="&#xfb01;" horiz-adv-x="1357" d="M53 852v254h183v39q0 139 23 225q24 90 78 144q55 55 145 77q94 23 227 23h73v-258h-47q-76 0 -117 -7t-66 -29q-24 -21 -30 -59q-6 -37 -6 -102v-53h266v-254h-266v-852h-280v852h-183zM922 1417q0 79 51 132t129 53q82 0 132 -53t50 -132q0 -77 -50 -129 q-50 -51 -132 -51q-80 0 -130 51q-50 52 -50 129zM958 0v1106h289v-1106h-289z" />
<glyph unicode="&#xfb02;" horiz-adv-x="1351" d="M53 852v254h183v39q0 139 23 225q24 90 78 144q55 55 145 77q94 23 227 23h73v-258h-47q-76 0 -117 -7t-66 -29q-24 -21 -30 -59q-6 -37 -6 -102v-53h266v-254h-266v-852h-280v852h-183zM958 0v1614h283v-1614h-283z" />
</font>
</defs>
</svg>
